<svg width="42" height="38" viewBox="0 0 42 38" fill="none" xmlns="http://www.w3.org/2000/svg">
<path d="M21.0003 8.58333V0.25H0.166992V37.75H41.8337V8.58333H21.0003ZM8.50033 33.5833H4.33366V29.4167H8.50033V33.5833ZM8.50033 25.25H4.33366V21.0833H8.50033V25.25ZM8.50033 16.9167H4.33366V12.75H8.50033V16.9167ZM8.50033 8.58333H4.33366V4.41667H8.50033V8.58333ZM16.8337 33.5833H12.667V29.4167H16.8337V33.5833ZM16.8337 25.25H12.667V21.0833H16.8337V25.25ZM16.8337 16.9167H12.667V12.75H16.8337V16.9167ZM16.8337 8.58333H12.667V4.41667H16.8337V8.58333ZM37.667 33.5833H21.0003V29.4167H25.167V25.25H21.0003V21.0833H25.167V16.9167H21.0003V12.75H37.667V33.5833ZM33.5003 16.9167H29.3337V21.0833H33.5003V16.9167ZM33.5003 25.25H29.3337V29.4167H33.5003V25.25Z" fill="white"/>
</svg>
