<svg width="31" height="31" viewBox="0 0 31 31" fill="none" xmlns="http://www.w3.org/2000/svg">
<path d="M30.0837 5.55449L13.4441 22.2087L7.26074 16.0253L9.31699 13.9691L13.4441 18.0962L28.0274 3.51283L30.0837 5.55449ZM26.8607 12.9045C27.0503 13.7357 27.167 14.6107 27.167 15.5003C27.167 21.9462 21.9462 27.167 15.5003 27.167C9.05449 27.167 3.83366 21.9462 3.83366 15.5003C3.83366 9.05449 9.05449 3.83366 15.5003 3.83366C17.8045 3.83366 19.9337 4.50449 21.742 5.65658L23.842 3.55658C21.4795 1.89408 18.6066 0.916992 15.5003 0.916992C7.45033 0.916992 0.916992 7.45033 0.916992 15.5003C0.916992 23.5503 7.45033 30.0837 15.5003 30.0837C23.5503 30.0837 30.0837 23.5503 30.0837 15.5003C30.0837 13.7649 29.7628 12.1024 29.2087 10.5566L26.8607 12.9045Z" fill="#036E67"/>
</svg>
