<svg width="301" height="155" viewBox="0 0 301 155" fill="none" xmlns="http://www.w3.org/2000/svg">
<circle opacity="0.1" cx="108" cy="4" r="3.5" fill="#036E67"/>
<circle opacity="0.1" cx="108" cy="25" r="3.5" fill="#036E67"/>
<circle opacity="0.1" cx="108" cy="46" r="3.5" fill="#036E67"/>
<circle opacity="0.1" cx="108" cy="67" r="3.5" fill="#036E67"/>
<circle opacity="0.1" cx="108" cy="88" r="3.5" fill="#036E67"/>
<circle opacity="0.1" cx="108" cy="109" r="3.5" fill="#036E67"/>
<circle opacity="0.1" cx="108" cy="130" r="3.5" fill="#036E67"/>
<circle opacity="0.1" cx="108" cy="151" r="3.5" fill="#036E67"/>
<circle opacity="0.1" cx="129" cy="4" r="3.5" fill="#036E67"/>
<circle opacity="0.1" cx="129" cy="25" r="3.5" fill="#036E67"/>
<circle opacity="0.1" cx="129" cy="46" r="3.5" fill="#036E67"/>
<circle opacity="0.1" cx="129" cy="67" r="3.5" fill="#036E67"/>
<circle opacity="0.1" cx="129" cy="88" r="3.5" fill="#036E67"/>
<circle opacity="0.1" cx="129" cy="109" r="3.5" fill="#036E67"/>
<circle opacity="0.1" cx="129" cy="130" r="3.5" fill="#036E67"/>
<circle opacity="0.1" cx="129" cy="151" r="3.5" fill="#036E67"/>
<circle opacity="0.1" cx="150" cy="4" r="3.5" fill="#036E67"/>
<circle opacity="0.1" cx="150" cy="25" r="3.5" fill="#036E67"/>
<circle opacity="0.1" cx="150" cy="46" r="3.5" fill="#036E67"/>
<circle opacity="0.1" cx="150" cy="67" r="3.5" fill="#036E67"/>
<circle opacity="0.1" cx="150" cy="88" r="3.5" fill="#036E67"/>
<circle opacity="0.1" cx="150" cy="109" r="3.5" fill="#036E67"/>
<circle opacity="0.1" cx="150" cy="130" r="3.5" fill="#036E67"/>
<circle opacity="0.1" cx="150" cy="151" r="3.5" fill="#036E67"/>
<circle opacity="0.1" cx="171" cy="4" r="3.5" fill="#036E67"/>
<circle opacity="0.1" cx="171" cy="25" r="3.5" fill="#036E67"/>
<circle opacity="0.1" cx="171" cy="46" r="3.5" fill="#036E67"/>
<circle opacity="0.1" cx="171" cy="67" r="3.5" fill="#036E67"/>
<circle opacity="0.1" cx="171" cy="88" r="3.5" fill="#036E67"/>
<circle opacity="0.1" cx="171" cy="109" r="3.5" fill="#036E67"/>
<circle opacity="0.1" cx="171" cy="130" r="3.5" fill="#036E67"/>
<circle opacity="0.1" cx="171" cy="151" r="3.5" fill="#036E67"/>
<circle opacity="0.1" cx="192" cy="4" r="3.5" fill="#036E67"/>
<circle opacity="0.1" cx="192" cy="25" r="3.5" fill="#036E67"/>
<circle opacity="0.1" cx="192" cy="46" r="3.5" fill="#036E67"/>
<circle opacity="0.1" cx="192" cy="67" r="3.5" fill="#036E67"/>
<circle opacity="0.1" cx="192" cy="88" r="3.5" fill="#036E67"/>
<circle opacity="0.1" cx="192" cy="109" r="3.5" fill="#036E67"/>
<circle opacity="0.1" cx="192" cy="130" r="3.5" fill="#036E67"/>
<circle opacity="0.1" cx="192" cy="151" r="3.5" fill="#036E67"/>
<circle opacity="0.1" cx="213" cy="4" r="3.5" fill="#036E67"/>
<circle opacity="0.1" cx="213" cy="25" r="3.5" fill="#036E67"/>
<circle opacity="0.1" cx="213" cy="46" r="3.5" fill="#036E67"/>
<circle opacity="0.1" cx="213" cy="67" r="3.5" fill="#036E67"/>
<circle opacity="0.1" cx="213" cy="88" r="3.5" fill="#036E67"/>
<circle opacity="0.1" cx="213" cy="109" r="3.5" fill="#036E67"/>
<circle opacity="0.1" cx="213" cy="130" r="3.5" fill="#036E67"/>
<circle opacity="0.1" cx="213" cy="151" r="3.5" fill="#036E67"/>
<circle opacity="0.1" cx="234" cy="4" r="3.5" fill="#036E67"/>
<circle opacity="0.1" cx="234" cy="25" r="3.5" fill="#036E67"/>
<circle opacity="0.1" cx="234" cy="46" r="3.5" fill="#036E67"/>
<circle opacity="0.1" cx="234" cy="67" r="3.5" fill="#036E67"/>
<circle opacity="0.1" cx="234" cy="88" r="3.5" fill="#036E67"/>
<circle opacity="0.1" cx="234" cy="109" r="3.5" fill="#036E67"/>
<circle opacity="0.1" cx="234" cy="130" r="3.5" fill="#036E67"/>
<circle opacity="0.1" cx="234" cy="151" r="3.5" fill="#036E67"/>
<circle opacity="0.1" cx="255" cy="4" r="3.5" fill="#036E67"/>
<circle opacity="0.1" cx="255" cy="25" r="3.5" fill="#036E67"/>
<circle opacity="0.1" cx="255" cy="46" r="3.5" fill="#036E67"/>
<circle opacity="0.1" cx="255" cy="67" r="3.5" fill="#036E67"/>
<circle opacity="0.1" cx="255" cy="88" r="3.5" fill="#036E67"/>
<circle opacity="0.1" cx="255" cy="109" r="3.5" fill="#036E67"/>
<circle opacity="0.1" cx="255" cy="130" r="3.5" fill="#036E67"/>
<circle opacity="0.1" cx="255" cy="151" r="3.5" fill="#036E67"/>
<circle opacity="0.1" cx="276" cy="4" r="3.5" fill="#036E67"/>
<circle opacity="0.1" cx="276" cy="25" r="3.5" fill="#036E67"/>
<circle opacity="0.1" cx="276" cy="46" r="3.5" fill="#036E67"/>
<circle opacity="0.1" cx="276" cy="67" r="3.5" fill="#036E67"/>
<circle opacity="0.1" cx="276" cy="88" r="3.5" fill="#036E67"/>
<circle opacity="0.1" cx="276" cy="109" r="3.5" fill="#036E67"/>
<circle opacity="0.1" cx="276" cy="130" r="3.5" fill="#036E67"/>
<circle opacity="0.1" cx="276" cy="151" r="3.5" fill="#036E67"/>
<circle opacity="0.1" cx="297" cy="4" r="3.5" fill="#036E67"/>
<circle opacity="0.1" cx="297" cy="25" r="3.5" fill="#036E67"/>
<circle opacity="0.1" cx="297" cy="46" r="3.5" fill="#036E67"/>
<circle opacity="0.1" cx="297" cy="67" r="3.5" fill="#036E67"/>
<circle opacity="0.1" cx="297" cy="88" r="3.5" fill="#036E67"/>
<circle opacity="0.1" cx="297" cy="109" r="3.5" fill="#036E67"/>
<circle opacity="0.1" cx="297" cy="130" r="3.5" fill="#036E67"/>
<circle opacity="0.1" cx="297" cy="151" r="3.5" fill="#036E67"/>
<circle opacity="0.1" cx="4" cy="4" r="3.5" fill="#036E67"/>
<circle opacity="0.1" cx="4" cy="25" r="3.5" fill="#036E67"/>
<circle opacity="0.1" cx="4" cy="46" r="3.5" fill="#036E67"/>
<circle opacity="0.1" cx="4" cy="67" r="3.5" fill="#036E67"/>
<circle opacity="0.1" cx="4" cy="88" r="3.5" fill="#036E67"/>
<circle opacity="0.1" cx="4" cy="109" r="3.5" fill="#036E67"/>
<circle opacity="0.1" cx="4" cy="130" r="3.5" fill="#036E67"/>
<circle opacity="0.1" cx="4" cy="151" r="3.5" fill="#036E67"/>
<circle opacity="0.1" cx="25" cy="4" r="3.5" fill="#036E67"/>
<circle opacity="0.1" cx="25" cy="25" r="3.5" fill="#036E67"/>
<circle opacity="0.1" cx="25" cy="46" r="3.5" fill="#036E67"/>
<circle opacity="0.1" cx="25" cy="67" r="3.5" fill="#036E67"/>
<circle opacity="0.1" cx="25" cy="88" r="3.5" fill="#036E67"/>
<circle opacity="0.1" cx="25" cy="109" r="3.5" fill="#036E67"/>
<circle opacity="0.1" cx="25" cy="130" r="3.5" fill="#036E67"/>
<circle opacity="0.1" cx="25" cy="151" r="3.5" fill="#036E67"/>
<circle opacity="0.1" cx="46" cy="4" r="3.5" fill="#036E67"/>
<circle opacity="0.1" cx="46" cy="25" r="3.5" fill="#036E67"/>
<circle opacity="0.1" cx="46" cy="46" r="3.5" fill="#036E67"/>
<circle opacity="0.1" cx="46" cy="67" r="3.5" fill="#036E67"/>
<circle opacity="0.1" cx="46" cy="88" r="3.5" fill="#036E67"/>
<circle opacity="0.1" cx="46" cy="109" r="3.5" fill="#036E67"/>
<circle opacity="0.1" cx="46" cy="130" r="3.5" fill="#036E67"/>
<circle opacity="0.1" cx="46" cy="151" r="3.5" fill="#036E67"/>
<circle opacity="0.1" cx="67" cy="4" r="3.5" fill="#036E67"/>
<circle opacity="0.1" cx="67" cy="25" r="3.5" fill="#036E67"/>
<circle opacity="0.1" cx="67" cy="46" r="3.5" fill="#036E67"/>
<circle opacity="0.1" cx="67" cy="67" r="3.5" fill="#036E67"/>
<circle opacity="0.1" cx="67" cy="88" r="3.5" fill="#036E67"/>
<circle opacity="0.1" cx="67" cy="109" r="3.5" fill="#036E67"/>
<circle opacity="0.1" cx="67" cy="130" r="3.5" fill="#036E67"/>
<circle opacity="0.1" cx="67" cy="151" r="3.5" fill="#036E67"/>
<circle opacity="0.1" cx="88" cy="4" r="3.5" fill="#036E67"/>
<circle opacity="0.1" cx="88" cy="25" r="3.5" fill="#036E67"/>
<circle opacity="0.1" cx="88" cy="46" r="3.5" fill="#036E67"/>
<circle opacity="0.1" cx="88" cy="67" r="3.5" fill="#036E67"/>
<circle opacity="0.1" cx="88" cy="88" r="3.5" fill="#036E67"/>
<circle opacity="0.1" cx="88" cy="109" r="3.5" fill="#036E67"/>
<circle opacity="0.1" cx="88" cy="130" r="3.5" fill="#036E67"/>
<circle opacity="0.1" cx="88" cy="151" r="3.5" fill="#036E67"/>
</svg>
