<svg width="779" height="234" viewBox="0 0 779 234" fill="none" xmlns="http://www.w3.org/2000/svg">
<path fill-rule="evenodd" clip-rule="evenodd" d="M169.995 146.371C174.053 142.29 176.561 136.667 176.561 130.457C176.561 117.994 166.457 107.89 153.993 107.89C141.53 107.89 131.426 117.994 131.426 130.457C131.426 136.4 133.723 141.807 137.478 145.837L131.522 151.761C126.258 146.21 123.029 138.711 123.029 130.457C123.029 113.356 136.892 99.493 153.993 99.493C171.094 99.493 184.958 113.356 184.958 130.457C184.958 138.977 181.517 146.694 175.948 152.292L169.995 146.371Z" fill="#FD8721"/>
<path fill-rule="evenodd" clip-rule="evenodd" d="M183.696 158.954C190.963 151.647 195.454 141.577 195.454 130.457C195.454 108.139 177.362 90.0463 155.043 90.0463C132.725 90.0463 114.632 108.139 114.632 130.457C114.632 141.311 118.911 151.164 125.873 158.424L119.919 164.347C111.447 155.568 106.235 143.621 106.235 130.457C106.235 103.501 128.087 81.6492 155.043 81.6492C181.999 81.6492 203.851 103.501 203.851 130.457C203.851 143.887 198.427 156.051 189.65 164.876L183.696 158.954Z" fill="#5995ED"/>
<path fill-rule="evenodd" clip-rule="evenodd" d="M197.836 173.018C208.689 162.105 215.397 147.064 215.397 130.457C215.397 97.1246 188.376 70.1031 155.043 70.1031C121.71 70.1031 94.6887 97.1246 94.6887 130.457C94.6887 146.798 101.183 161.623 111.732 172.49L105.778 178.412C93.7191 166.026 86.2916 149.109 86.2916 130.457C86.2916 92.487 117.073 61.706 155.043 61.706C193.013 61.706 223.794 92.487 223.794 130.457C223.794 149.375 216.153 166.508 203.789 178.939L197.836 173.018Z" fill="#9B28CC"/>
<path fill-rule="evenodd" clip-rule="evenodd" d="M212.127 186.189C226.474 171.765 235.34 151.884 235.34 129.933C235.34 85.8754 199.625 50.1601 155.568 50.1601C111.511 50.1601 75.7955 85.8754 75.7955 129.933C75.7955 151.884 84.6619 171.764 99.0088 186.188L93.0553 192.11C77.1981 176.168 67.3984 154.195 67.3984 129.933C67.3984 81.2378 106.873 41.763 155.568 41.763C204.263 41.763 243.737 81.2378 243.737 129.933C243.737 154.195 233.938 176.168 218.08 192.11L212.127 186.189Z" fill="#048A81"/>
<path d="M334.685 107.055H320.395C320.134 105.206 319.601 103.564 318.796 102.128C317.991 100.671 316.958 99.4311 315.696 98.4088C314.435 97.3864 312.977 96.6034 311.324 96.0596C309.693 95.5158 307.92 95.2439 306.006 95.2439C302.547 95.2439 299.535 96.1031 296.968 97.8215C294.402 99.5181 292.411 101.998 290.997 105.261C289.584 108.502 288.877 112.439 288.877 117.072C288.877 121.835 289.584 125.838 290.997 129.079C292.433 132.32 294.434 134.767 297.001 136.42C299.568 138.073 302.537 138.899 305.908 138.899C307.801 138.899 309.552 138.649 311.161 138.149C312.792 137.649 314.239 136.92 315.501 135.963C316.762 134.984 317.806 133.799 318.633 132.407C319.481 131.014 320.068 129.427 320.395 127.643L334.685 127.708C334.316 130.775 333.391 133.733 331.912 136.583C330.455 139.411 328.486 141.945 326.007 144.185C323.549 146.404 320.612 148.166 317.197 149.471C313.804 150.754 309.965 151.396 305.68 151.396C299.72 151.396 294.391 150.047 289.692 147.35C285.016 144.653 281.318 140.748 278.599 135.637C275.902 130.525 274.553 124.337 274.553 117.072C274.553 109.785 275.924 103.586 278.664 98.474C281.405 93.3624 285.124 89.4689 289.823 86.7934C294.521 84.0962 299.807 82.7476 305.68 82.7476C309.552 82.7476 313.141 83.2914 316.447 84.379C319.775 85.4666 322.722 87.0544 325.289 89.1426C327.855 91.209 329.944 93.743 331.553 96.7448C333.185 99.7465 334.229 103.183 334.685 107.055ZM362.428 150.482H347.289L370.356 83.6612H388.562L411.597 150.482H396.458L379.72 98.9308H379.198L362.428 150.482ZM361.482 124.217H397.241V135.245H361.482V124.217ZM426.99 83.6612H444.413L462.815 128.556H463.598L482 83.6612H499.423V150.482H485.72V106.99H485.165L467.873 150.156H458.541L441.249 106.827H440.694V150.482H426.99V83.6612ZM554.662 102.879C554.401 100.247 553.281 98.2021 551.302 96.7448C549.322 95.2874 546.636 94.5587 543.243 94.5587C540.937 94.5587 538.99 94.885 537.403 95.5376C535.815 96.1684 534.597 97.0493 533.748 98.1804C532.922 99.3115 532.508 100.595 532.508 102.03C532.465 103.227 532.715 104.271 533.259 105.163C533.824 106.054 534.597 106.827 535.575 107.479C536.554 108.11 537.685 108.665 538.969 109.143C540.252 109.6 541.622 109.991 543.08 110.318L549.083 111.753C551.998 112.406 554.673 113.276 557.109 114.364C559.546 115.451 561.656 116.789 563.439 118.377C565.223 119.965 566.604 121.835 567.583 123.989C568.583 126.142 569.095 128.611 569.116 131.395C569.095 135.484 568.051 139.03 565.984 142.032C563.939 145.012 560.981 147.328 557.109 148.981C553.259 150.613 548.615 151.428 543.178 151.428C537.783 151.428 533.085 150.602 529.083 148.949C525.102 147.296 521.992 144.848 519.751 141.607C517.532 138.345 516.369 134.31 516.26 129.503H529.931C530.083 131.743 530.725 133.614 531.856 135.115C533.009 136.594 534.542 137.714 536.456 138.475C538.392 139.215 540.578 139.585 543.014 139.585C545.407 139.585 547.484 139.237 549.246 138.54C551.03 137.844 552.411 136.876 553.39 135.637C554.369 134.397 554.858 132.972 554.858 131.362C554.858 129.862 554.412 128.6 553.52 127.578C552.65 126.555 551.367 125.685 549.67 124.967C547.996 124.25 545.94 123.597 543.504 123.01L536.228 121.183C530.594 119.812 526.146 117.67 522.883 114.755C519.621 111.84 518 107.914 518.022 102.977C518 98.9308 519.077 95.3962 521.252 92.3727C523.449 89.3492 526.461 86.9892 530.29 85.2925C534.118 83.5959 538.468 82.7476 543.341 82.7476C548.3 82.7476 552.629 83.5959 556.326 85.2925C560.046 86.9892 562.939 89.3492 565.005 92.3727C567.072 95.3962 568.138 98.8982 568.203 102.879H554.662ZM647.374 117.072C647.374 124.358 645.993 130.558 643.231 135.669C640.49 140.781 636.749 144.685 632.007 147.383C627.287 150.058 621.979 151.396 616.085 151.396C610.146 151.396 604.817 150.047 600.097 147.35C595.377 144.653 591.647 140.748 588.906 135.637C586.165 130.525 584.795 124.337 584.795 117.072C584.795 109.785 586.165 103.586 588.906 98.474C591.647 93.3624 595.377 89.4689 600.097 86.7934C604.817 84.0962 610.146 82.7476 616.085 82.7476C621.979 82.7476 627.287 84.0962 632.007 86.7934C636.749 89.4689 640.49 93.3624 643.231 98.474C645.993 103.586 647.374 109.785 647.374 117.072ZM633.051 117.072C633.051 112.352 632.344 108.371 630.93 105.13C629.538 101.889 627.569 99.4311 625.024 97.7562C622.479 96.0813 619.5 95.2439 616.085 95.2439C612.67 95.2439 609.69 96.0813 607.145 97.7562C604.6 99.4311 602.62 101.889 601.206 105.13C599.814 108.371 599.118 112.352 599.118 117.072C599.118 121.792 599.814 125.772 601.206 129.013C602.62 132.254 604.6 134.712 607.145 136.387C609.69 138.062 612.67 138.899 616.085 138.899C619.5 138.899 622.479 138.062 625.024 136.387C627.569 134.712 629.538 132.254 630.93 129.013C632.344 125.772 633.051 121.792 633.051 117.072ZM665.19 150.482V83.6612H679.317V138.834H707.964V150.482H665.19Z" fill="#001A25"/>
</svg>
