<svg width="161" height="38" viewBox="0 0 161 38" fill="none" xmlns="http://www.w3.org/2000/svg">
<path fill-rule="evenodd" clip-rule="evenodd" d="M26.042 26.3967C27.0466 25.3866 27.6674 23.9944 27.6674 22.4572C27.6674 19.3717 25.1661 16.8705 22.0806 16.8705C18.9951 16.8705 16.4938 19.3717 16.4938 22.4572C16.4938 23.9285 17.0625 25.2669 17.9921 26.2647L16.5177 27.7312C15.2145 26.3571 14.415 24.5005 14.415 22.4572C14.415 18.2237 17.847 14.7917 22.0806 14.7917C26.3142 14.7917 29.7462 18.2237 29.7462 22.4572C29.7462 24.5664 28.8943 26.4767 27.5159 27.8627L26.042 26.3967Z" fill="#222222"/>
<path fill-rule="evenodd" clip-rule="evenodd" d="M29.4332 29.5119C31.2323 27.703 32.3441 25.2099 32.3441 22.4572C32.3441 16.932 27.865 12.453 22.3399 12.453C16.8147 12.453 12.3356 16.932 12.3356 22.4572C12.3356 25.144 13.3948 27.5835 15.1184 29.3808L13.6444 30.847C11.547 28.6736 10.2568 25.7161 10.2568 22.4572C10.2568 15.7839 15.6666 10.3742 22.3399 10.3742C29.0131 10.3742 34.4229 15.7839 34.4229 22.4572C34.4229 25.782 33.08 28.7931 30.9071 30.9779L29.4332 29.5119Z" fill="#222222"/>
<path fill-rule="evenodd" clip-rule="evenodd" d="M32.9344 32.9936C35.6214 30.2921 37.2819 26.5686 37.2819 22.4572C37.2819 14.2053 30.5924 7.51583 22.3405 7.51583C14.0886 7.51583 7.39914 14.2053 7.39914 22.4572C7.39914 26.5026 9.00688 30.1726 11.6183 32.8629L10.1443 34.329C7.15908 31.2627 5.32034 27.0747 5.32034 22.4572C5.32034 13.0572 12.9405 5.43703 22.3405 5.43703C31.7405 5.43703 39.3607 13.0572 39.3607 22.4572C39.3607 27.1406 37.4691 31.3822 34.4082 34.4596L32.9344 32.9936Z" fill="#222222"/>
<path fill-rule="evenodd" clip-rule="evenodd" d="M36.4718 36.2541C40.0236 32.6833 42.2186 27.7617 42.2186 22.3273C42.2186 11.4204 33.3768 2.57869 22.47 2.57869C11.5631 2.57869 2.72136 11.4204 2.72136 22.3273C2.72136 27.7617 4.91636 32.6833 8.46814 36.2541L6.99426 37.7201C3.06861 33.7734 0.642556 28.3337 0.642556 22.3273C0.642556 10.2724 10.415 0.499889 22.47 0.499889C34.5249 0.499889 44.2974 10.2724 44.2974 22.3273C44.2974 28.3337 41.8713 33.7734 37.9457 37.7201L36.4718 36.2541Z" fill="#222222"/>
<path d="M66.8127 16.8296H63.2748C63.2102 16.3718 63.0783 15.9653 62.8791 15.6099C62.6798 15.2491 62.424 14.9422 62.1117 14.6891C61.7994 14.436 61.4386 14.2421 61.0294 14.1075C60.6255 13.9729 60.1866 13.9056 59.7128 13.9056C58.8566 13.9056 58.1108 14.1183 57.4753 14.5437C56.8399 14.9637 56.3472 15.5776 55.9972 16.3853C55.6472 17.1876 55.4722 18.1623 55.4722 19.3093C55.4722 20.4886 55.6472 21.4794 55.9972 22.2817C56.3526 23.0841 56.848 23.6899 57.4834 24.0991C58.1188 24.5084 58.8539 24.713 59.6885 24.713C60.157 24.713 60.5905 24.6511 60.989 24.5272C61.3928 24.4034 61.7509 24.223 62.0632 23.986C62.3756 23.7437 62.634 23.4502 62.8387 23.1056C63.0487 22.761 63.1941 22.3679 63.2748 21.9263L66.8127 21.9425C66.7212 22.7018 66.4923 23.4341 66.1261 24.1395C65.7653 24.8395 65.278 25.4669 64.6641 26.0215C64.0557 26.5708 63.3287 27.007 62.4833 27.33C61.6432 27.6478 60.6928 27.8066 59.632 27.8066C58.1565 27.8066 56.8372 27.4727 55.6741 26.805C54.5164 26.1373 53.6009 25.1707 52.9278 23.9053C52.2601 22.6398 51.9262 21.1078 51.9262 19.3093C51.9262 17.5054 52.2655 15.9707 52.944 14.7052C53.6225 13.4398 54.5433 12.4759 55.7064 11.8135C56.8695 11.1458 58.1781 10.812 59.632 10.812C60.5905 10.812 61.479 10.9466 62.2975 11.2158C63.1214 11.4851 63.851 11.8782 64.4864 12.3951C65.1219 12.9067 65.6388 13.534 66.0373 14.2771C66.4411 15.0202 66.6996 15.871 66.8127 16.8296ZM73.6807 27.5804H69.9328L75.6435 11.0381H80.1506L85.8532 27.5804H82.1053L77.9616 14.8183H77.8324L73.6807 27.5804ZM73.4464 21.0782H82.2992V23.8083H73.4464V21.0782ZM89.6639 11.0381H93.9772L98.5328 22.1525H98.7266L103.282 11.0381H107.595V27.5804H104.203V16.8134H104.066L99.7847 27.4997H97.4746L93.1937 16.773H93.0563V27.5804H89.6639V11.0381ZM121.271 15.7957C121.206 15.1441 120.929 14.6379 120.439 14.2771C119.949 13.9163 119.284 13.7359 118.444 13.7359C117.873 13.7359 117.391 13.8167 116.998 13.9783C116.605 14.1344 116.303 14.3525 116.093 14.6325C115.888 14.9125 115.786 15.2302 115.786 15.5856C115.775 15.8818 115.837 16.1403 115.972 16.3611C116.112 16.5818 116.303 16.773 116.545 16.9346C116.788 17.0907 117.068 17.228 117.385 17.3465C117.703 17.4596 118.042 17.5565 118.403 17.6373L119.889 17.9927C120.611 18.1542 121.273 18.3696 121.876 18.6389C122.48 18.9081 123.002 19.2393 123.443 19.6324C123.885 20.0255 124.227 20.4886 124.469 21.0217C124.717 21.5548 124.843 22.166 124.849 22.8552C124.843 23.8676 124.585 24.7453 124.073 25.4884C123.567 26.2261 122.835 26.7996 121.876 27.2089C120.923 27.6128 119.774 27.8147 118.427 27.8147C117.092 27.8147 115.929 27.6101 114.938 27.2008C113.953 26.7916 113.183 26.1858 112.628 25.3834C112.079 24.5757 111.791 23.5768 111.764 22.3867H115.148C115.186 22.9414 115.345 23.4045 115.625 23.776C115.91 24.1422 116.29 24.4195 116.763 24.608C117.243 24.7911 117.784 24.8826 118.387 24.8826C118.979 24.8826 119.494 24.7965 119.93 24.6242C120.371 24.4518 120.713 24.2122 120.956 23.9053C121.198 23.5983 121.319 23.2456 121.319 22.8471C121.319 22.4756 121.209 22.1633 120.988 21.9102C120.773 21.6571 120.455 21.4417 120.035 21.264C119.62 21.0863 119.111 20.9247 118.508 20.7794L116.707 20.327C115.312 19.9878 114.211 19.4574 113.403 18.7358C112.596 18.0142 112.194 17.0423 112.2 15.8199C112.194 14.8183 112.461 13.9433 112.999 13.1948C113.543 12.4463 114.289 11.862 115.237 11.442C116.185 11.022 117.262 10.812 118.468 10.812C119.696 10.812 120.767 11.022 121.683 11.442C122.603 11.862 123.32 12.4463 123.831 13.1948C124.343 13.9433 124.607 14.8102 124.623 15.7957H121.271ZM144.223 19.3093C144.223 21.1132 143.881 22.6479 143.197 23.9133C142.518 25.1788 141.592 26.1454 140.418 26.8131C139.25 27.4754 137.936 27.8066 136.476 27.8066C135.006 27.8066 133.687 27.4727 132.518 26.805C131.35 26.1373 130.426 25.1707 129.748 23.9053C129.069 22.6398 128.73 21.1078 128.73 19.3093C128.73 17.5054 129.069 15.9707 129.748 14.7052C130.426 13.4398 131.35 12.4759 132.518 11.8135C133.687 11.1458 135.006 10.812 136.476 10.812C137.936 10.812 139.25 11.1458 140.418 11.8135C141.592 12.4759 142.518 13.4398 143.197 14.7052C143.881 15.9707 144.223 17.5054 144.223 19.3093ZM140.677 19.3093C140.677 18.1408 140.502 17.1553 140.152 16.353C139.807 15.5506 139.32 14.9422 138.69 14.5275C138.06 14.1129 137.322 13.9056 136.476 13.9056C135.631 13.9056 134.893 14.1129 134.263 14.5275C133.633 14.9422 133.143 15.5506 132.793 16.353C132.448 17.1553 132.276 18.1408 132.276 19.3093C132.276 20.4778 132.448 21.4632 132.793 22.2656C133.143 23.0679 133.633 23.6764 134.263 24.091C134.893 24.5057 135.631 24.713 136.476 24.713C137.322 24.713 138.06 24.5057 138.69 24.091C139.32 23.6764 139.807 23.0679 140.152 22.2656C140.502 21.4632 140.677 20.4778 140.677 19.3093ZM148.633 27.5804V11.0381H152.13V24.6968H159.222V27.5804H148.633Z" fill="#222222"/>
</svg>
