<svg width="231" height="50" viewBox="0 0 231 50" fill="none" xmlns="http://www.w3.org/2000/svg">
<path fill-rule="evenodd" clip-rule="evenodd" d="M11.0884 8.28124C11.3679 8.92318 11.7546 9.50604 12.2242 9.98054C12.6954 10.4813 13.2723 10.872 13.932 11.1544C14.5673 11.4302 15.2595 11.5715 16.0021 11.5715C16.7512 11.5715 17.4353 11.4302 18.0706 11.1544C18.706 10.872 19.2828 10.4813 19.7849 9.98054C20.2545 9.50604 20.6347 8.92318 20.9142 8.28124C21.1872 7.64092 21.327 6.94151 21.327 6.1912C21.327 5.44089 21.1872 4.74146 20.9142 4.09951C20.6347 3.4592 20.2545 2.87471 19.7849 2.36903C19.2828 1.89455 18.706 1.50874 18.0706 1.22633C17.4353 0.950522 16.7512 0.810948 16.0021 0.810948C15.2595 0.810948 14.5673 0.950522 13.932 1.22633C13.2723 1.50874 12.6954 1.89455 12.2242 2.36903C11.7546 2.87471 11.3679 3.4592 11.0884 4.09951C10.791 4.74146 10.6513 5.44089 10.6513 6.1912C10.6513 6.94151 10.791 7.64092 11.0884 8.28124ZM0.412725 39.5596C0.692211 40.2015 1.07894 40.7844 1.57454 41.2589C2.04414 41.7596 2.62098 42.1504 3.25632 42.4328C3.89166 42.7086 4.58225 42.8498 5.32483 42.8498H26.7103C27.4529 42.8498 28.1435 42.7086 28.8048 42.4328C29.4385 42.1504 30.017 41.7596 30.4866 41.2589C30.9562 40.7844 31.3429 40.2015 31.6224 39.5596C31.8954 38.9176 32.0351 38.2199 32.0351 37.4695V25.591H7.45184V22.3599H32.0351V20.2107C32.0351 19.4604 31.8954 18.761 31.6224 18.1207C31.3429 17.4787 30.9562 16.8942 30.4866 16.3951C30.017 15.9206 29.4385 15.5282 28.8048 15.2524C28.1435 14.9716 27.4529 14.8305 26.7103 14.8305H5.32483C4.58225 14.8305 3.89166 14.9716 3.25632 15.2524C2.62098 15.5282 2.04414 15.9206 1.57454 16.3951C1.07894 16.8942 0.692211 17.4787 0.412725 18.1207C0.139741 18.761 0 19.4604 0 20.2107V32.0876H24.5264V35.3204H0V37.4695C0 38.2199 0.139741 38.9176 0.412725 39.5596V39.5596Z" fill="#00090D"/>
<path fill-rule="evenodd" clip-rule="evenodd" d="M54.4535 42.8498V32.9289H61.7535V30.4755H54.4535V24.562H63.2027V22.0805H51.4941V42.8498H54.4535V42.8498Z" fill="#00090D"/>
<path fill-rule="evenodd" clip-rule="evenodd" d="M70.069 42.8498V27.7247H65.2441V29.643C65.6587 29.6712 66.3119 29.761 67.1967 29.8771V42.8498H70.069V42.8498ZM69.0605 24.5902C69.327 24.474 69.5656 24.2945 69.8025 23.9654C70.0411 23.6627 70.1561 23.3054 70.1561 22.9464C70.1561 22.707 70.069 22.4114 69.9523 22.1421C69.8025 21.8411 69.5656 21.6 69.273 21.3941C68.9734 21.2146 68.6459 21.1248 68.2923 21.1248C68.0276 21.1248 67.735 21.1864 67.4615 21.3043C67.1706 21.4557 66.9041 21.6616 66.6933 21.9643C66.4895 22.2319 66.4007 22.5891 66.4007 22.9464C66.4007 23.1875 66.4616 23.4286 66.5505 23.6345C66.6393 23.8757 66.7822 24.0534 66.9581 24.2048C67.1427 24.3843 67.3465 24.5004 67.5503 24.5902C67.789 24.68 68.0276 24.7416 68.2923 24.7416C68.531 24.7416 68.7957 24.68 69.0605 24.5902V24.5902Z" fill="#00090D"/>
<path fill-rule="evenodd" clip-rule="evenodd" d="M77.934 42.8498V34.0641C77.934 33.4938 78.0489 32.8954 78.2876 32.2689C78.5541 31.616 78.9686 31.0739 79.5939 30.5987C80.2402 30.1517 80.9212 29.9106 81.6894 29.9106C82.67 29.9106 83.3772 30.1798 83.8475 30.6885C84.323 31.2253 84.5617 32.063 84.5617 33.1982V42.8498H87.4252V32.3587C87.4252 31.5825 87.2824 30.8398 87.0176 30.0619C86.718 29.2858 86.2147 28.6539 85.4796 28.1788C84.7115 27.6701 83.7587 27.429 82.5812 27.429C81.4856 27.429 80.5398 27.6349 79.7368 28.089C78.9408 28.536 78.3224 29.1344 77.873 29.849L77.8191 27.7247H75.0635V42.8498H77.934Z" fill="#00090D"/>
<path fill-rule="evenodd" clip-rule="evenodd" d="M97.7196 42.9396C98.3119 42.7882 98.8431 42.6087 99.2856 42.3694C99.728 42.1353 100.089 41.866 100.381 41.5651L100.442 42.8498H103.163V32.4485C103.163 31.5826 103.041 30.8047 102.802 30.1799C102.598 29.5533 102.245 29.0447 101.769 28.6258C101.299 28.207 100.707 27.9113 99.9666 27.7247C99.2576 27.5188 98.4007 27.4291 97.3939 27.4291C96.8905 27.4291 96.3592 27.4572 95.7949 27.5188C95.2375 27.547 94.7602 27.6086 94.3788 27.6983C94.0182 27.7599 93.4347 27.9113 92.6317 28.1172V30.4755C93.2501 30.2415 93.9033 30.062 94.5843 29.8772C95.2636 29.7328 96.0335 29.6431 96.8295 29.6431C97.4827 29.6431 98.0749 29.7328 98.6654 29.8772C99.2315 30.0285 99.6391 30.296 99.9108 30.7149C100.203 31.1355 100.32 31.7058 100.32 32.4819V33.2862C100.292 33.2862 100.177 33.2862 100.028 33.2862C99.8777 33.3144 99.7279 33.3144 99.5503 33.3144C99.4074 33.3144 99.2315 33.3144 99.0817 33.3144C98.9319 33.3144 98.8431 33.3144 98.8152 33.3144C97.9251 33.3496 97.1553 33.4041 96.4481 33.4939C95.7409 33.6171 95.0877 33.7949 94.5233 34.0025C93.5218 34.4214 92.7536 34.9916 92.2154 35.7343C91.712 36.4841 91.4473 37.4397 91.4473 38.5732C91.4473 39.4127 91.5692 40.1008 91.8009 40.671C92.0726 41.2694 92.3931 41.7428 92.8076 42.1001C93.2222 42.4574 93.7256 42.7337 94.2917 42.878C94.8491 43.0558 95.4413 43.1455 96.0596 43.1455C96.563 43.1455 97.1291 43.0558 97.7196 42.9396L97.7196 42.9396ZM95.5302 40.671C95.1139 40.4915 94.8212 40.2169 94.6105 39.8051C94.4067 39.4126 94.3178 38.9656 94.3178 38.457C94.3178 37.8867 94.4067 37.4116 94.6105 37.0208C94.8212 36.6354 95.1139 36.3327 95.5302 36.0652C95.9447 35.8241 96.4481 35.6798 97.0665 35.5548C97.6865 35.4668 98.4286 35.4105 99.2577 35.4105H100.32V39.5024C100.143 39.6801 99.9109 39.8931 99.6113 40.1008C99.3186 40.3137 98.9041 40.4915 98.4007 40.671C97.8973 40.8153 97.366 40.9051 96.8627 40.9051C96.3871 40.9051 95.9447 40.8153 95.5302 40.671V40.671Z" fill="#00090D"/>
<path fill-rule="evenodd" clip-rule="evenodd" d="M109.739 42.8498V34.0641C109.739 33.4938 109.854 32.8954 110.092 32.2689C110.359 31.616 110.773 31.0739 111.399 30.5987C112.045 30.1517 112.726 29.9106 113.494 29.9106C114.475 29.9106 115.182 30.1798 115.652 30.6885C116.128 31.2253 116.366 32.063 116.366 33.1982V42.8498H119.23V32.3587C119.23 31.5825 119.087 30.8398 118.822 30.0619C118.523 29.2858 118.019 28.6539 117.284 28.1788C116.516 27.6701 115.563 27.429 114.386 27.429C113.29 27.429 112.344 27.6349 111.541 28.089C110.745 28.536 110.127 29.1344 109.678 29.849L109.624 27.7247H106.868V42.8498H109.739H109.739Z" fill="#00090D"/>
<path fill-rule="evenodd" clip-rule="evenodd" d="M134.822 42.8498V40.5812H126.215C126.63 39.9212 127.283 38.9937 128.168 37.8304C129.06 36.6618 129.739 35.7959 130.209 35.1975C131.543 33.5273 132.993 31.7603 134.529 29.9739V27.7247H123.289V30.0003H131.066C129.324 32.063 128.107 33.5554 127.372 34.5445C126.393 35.824 125.508 37.0542 124.677 38.1894C123.881 39.2947 123.317 40.1007 122.989 40.6094V42.8498H134.822V42.8498Z" fill="#00090D"/>
<path fill-rule="evenodd" clip-rule="evenodd" d="M146.953 48.7686C147.784 48.5293 148.491 48.1086 149.055 47.5384C149.559 47.0368 149.968 46.3768 150.24 45.6271C150.504 44.8844 150.647 43.9569 150.647 42.878V27.7248H147.899L147.838 29.0113C147.634 28.8054 147.367 28.5643 146.981 28.295C146.627 28.0556 146.185 27.8497 145.62 27.6702C145.061 27.5188 144.443 27.4291 143.729 27.4291C142.87 27.4291 142.074 27.6086 141.334 27.9377C140.592 28.295 139.946 28.8054 139.381 29.4654C138.85 30.1517 138.407 30.956 138.08 31.9399C137.754 32.929 137.604 34.036 137.604 35.2873C137.604 36.6354 137.754 37.797 138.054 38.7861C138.347 39.7418 138.761 40.5197 139.264 41.1445C139.796 41.778 140.414 42.2251 141.156 42.5207C141.863 42.7883 142.666 42.9396 143.523 42.9396C144.497 42.9396 145.354 42.7601 146.035 42.4028C146.714 42.0456 147.306 41.5017 147.81 40.7256V43.0558C147.81 44.3758 147.456 45.3314 146.749 45.958C146.068 46.6179 144.972 46.9136 143.462 46.9136C142.313 46.9136 141.128 46.7623 139.857 46.4384L139.414 48.6454C139.857 48.7352 140.449 48.8584 141.217 49.0027C141.987 49.1259 142.933 49.1892 144.054 49.1892C145.15 49.1892 146.096 49.0379 146.953 48.7686H146.953ZM142.49 40.1624C142.041 39.8597 141.687 39.4742 141.421 38.9938C141.156 38.5186 140.98 37.9484 140.863 37.2884C140.775 36.6618 140.714 35.9755 140.714 35.2873C140.714 34.4214 140.802 33.6787 141.006 32.9906C141.184 32.3306 141.456 31.7603 141.776 31.2869C142.102 30.8399 142.516 30.4756 142.959 30.2415C143.436 30.0004 143.966 29.8772 144.532 29.8772C144.939 29.8772 145.354 29.9388 145.77 30.062C146.185 30.1517 146.538 30.3313 146.838 30.509C147.131 30.7149 147.456 30.9842 147.784 31.3133V35.8575C147.784 36.5738 147.66 37.2884 147.456 38.01C147.252 38.7527 146.864 39.3511 146.3 39.8597C145.742 40.3402 145.061 40.6094 144.232 40.6094C143.523 40.6094 142.959 40.4581 142.49 40.1624V40.1624Z" fill="#00090D"/>
<path fill-rule="evenodd" clip-rule="evenodd" d="M158.317 42.8498V34.6624C158.317 34.1802 158.406 33.7068 158.582 33.1982C158.759 32.6895 159.024 32.2425 159.385 31.8219C159.738 31.403 160.181 31.0457 160.712 30.7782C161.243 30.5089 161.868 30.3858 162.576 30.3858C163.053 30.3858 163.372 30.421 163.61 30.4755V27.7247C163.346 27.6702 162.964 27.6349 162.489 27.6349C162.011 27.6349 161.515 27.7247 160.977 27.9112C160.447 28.089 159.977 28.4128 159.473 28.8669C158.998 29.3403 158.582 29.9106 158.256 30.5987L158.202 27.7247H155.446V42.8498H158.317H158.317Z" fill="#00090D"/>
<path fill-rule="evenodd" clip-rule="evenodd" d="M175.245 42.4926C176.041 42.0456 176.66 41.4753 177.102 40.7256L177.137 42.8499H179.913V27.7248H177.048V36.5457C177.048 37.1089 176.959 37.6527 176.748 38.1613C176.573 38.6629 176.306 39.117 175.952 39.4743C175.599 39.8597 175.21 40.1624 174.742 40.3683C174.292 40.6094 173.796 40.6974 173.258 40.6974C172.286 40.6974 171.577 40.4581 171.101 39.9494C170.659 39.4743 170.42 38.6629 170.42 37.5295V27.7248H167.55V38.1613C167.55 39.8051 167.964 41.0547 168.821 41.8942C169.652 42.7337 170.837 43.1455 172.373 43.1455C173.469 43.1455 174.414 42.9115 175.245 42.4926H175.245Z" fill="#00090D"/>
<path fill-rule="evenodd" clip-rule="evenodd" d="M186.96 48.8864V41.9222C187.403 42.3129 187.941 42.5822 188.559 42.8216C189.179 43.0292 189.887 43.1454 190.744 43.1454C191.785 43.1454 192.696 42.9659 193.527 42.6086C194.323 42.2513 195.002 41.7145 195.541 41.0282C196.072 40.34 196.486 39.5023 196.779 38.485C197.044 37.5012 197.194 36.366 197.194 35.0812C197.194 33.8581 197.018 32.6261 196.69 31.4311C196.365 30.2414 195.744 29.2505 194.826 28.536C193.914 27.7862 192.757 27.4289 191.369 27.4289C190.744 27.4289 190.158 27.5187 189.566 27.6982C189.002 27.876 188.471 28.1787 187.995 28.5641C187.525 28.983 187.171 29.43 186.899 29.9386L186.845 27.7246H184.09V48.8864H186.96H186.96ZM188.41 40.4016C187.878 40.1623 187.403 39.805 186.96 39.3844V35.5001C186.96 34.6888 187.049 33.9126 187.199 33.2245C187.375 32.5381 187.614 31.9397 187.906 31.4645C188.206 30.9559 188.587 30.5652 189.063 30.2959C189.505 30.0284 190.009 29.877 190.601 29.877C191.247 29.877 191.839 30.0618 192.404 30.3857C192.968 30.7148 193.377 31.2868 193.677 32.1175C193.969 32.9288 194.118 33.9461 194.118 35.1428C194.118 35.706 194.091 36.2147 194.003 36.7251C193.942 37.2337 193.853 37.7071 193.703 38.1612C193.588 38.5466 193.41 38.9655 193.146 39.3509C192.907 39.7698 192.519 40.1007 191.989 40.3682C191.458 40.6709 190.866 40.787 190.158 40.787C189.505 40.787 188.913 40.6709 188.41 40.4016V40.4016Z" fill="#00090D"/>
<path fill-rule="evenodd" clip-rule="evenodd" d="M203.863 48.8864V41.9222C204.305 42.3129 204.843 42.5822 205.462 42.8216C206.082 43.0292 206.789 43.1454 207.646 43.1454C208.688 43.1454 209.599 42.9659 210.429 42.6086C211.225 42.2513 211.905 41.7145 212.443 41.0282C212.974 40.34 213.389 39.5023 213.681 38.485C213.946 37.5012 214.096 36.366 214.096 35.0812C214.096 33.8581 213.92 32.6261 213.593 31.4311C213.267 30.2414 212.647 29.2505 211.729 28.536C210.816 27.7862 209.66 27.4289 208.271 27.4289C207.646 27.4289 207.061 27.5187 206.469 27.6982C205.904 27.876 205.373 28.1787 204.897 28.5641C204.427 28.983 204.074 29.43 203.802 29.9386L203.748 27.7246H200.992V48.8864H203.863H203.863ZM205.312 40.4016C204.781 40.1623 204.305 39.805 203.863 39.3844V35.5001C203.863 34.6888 203.952 33.9126 204.101 33.2245C204.277 32.5381 204.516 31.9397 204.809 31.4645C205.108 30.9559 205.49 30.5652 205.965 30.2959C206.408 30.0284 206.911 29.877 207.503 29.877C208.149 29.877 208.742 30.0618 209.306 30.3857C209.87 30.7148 210.28 31.2868 210.579 32.1175C210.872 32.9288 211.02 33.9461 211.02 35.1428C211.02 35.706 210.994 36.2147 210.905 36.7251C210.844 37.2337 210.755 37.7071 210.605 38.1612C210.49 38.5466 210.313 38.9655 210.048 39.3509C209.809 39.7698 209.421 40.1007 208.891 40.3682C208.36 40.6709 207.768 40.787 207.061 40.787C206.408 40.787 205.815 40.6709 205.312 40.4016V40.4016Z" fill="#00090D"/>
<path fill-rule="evenodd" clip-rule="evenodd" d="M227.405 43.091C228.146 42.966 228.827 42.8498 229.447 42.6439L228.881 40.4299C228.412 40.5461 227.874 40.671 227.228 40.7608C226.609 40.8769 225.956 40.9051 225.303 40.9051C223.854 40.9051 222.791 40.4915 222.049 39.6802C221.309 38.8759 220.9 37.7072 220.778 36.1884H230.33C230.365 35.6798 230.393 35.0814 230.393 34.4214C230.393 32.1528 229.887 30.421 228.881 29.189C227.848 27.9659 226.371 27.3675 224.357 27.3675C223.295 27.3675 222.349 27.547 221.52 27.9377C220.689 28.3231 220.01 28.867 219.45 29.5815C218.886 30.2696 218.444 31.1074 218.179 32.0912C217.879 33.0803 217.729 34.1539 217.729 35.3225C217.729 36.5105 217.879 37.6175 218.205 38.5731C218.532 39.564 219.001 40.4017 219.593 41.0899C220.22 41.778 220.955 42.2796 221.845 42.6703C222.73 43.0294 223.737 43.2071 224.887 43.2071C225.839 43.2071 226.696 43.1807 227.405 43.091H227.405ZM221.724 30.7149C222.316 29.9106 223.173 29.4917 224.296 29.4917C225.364 29.4917 226.132 29.849 226.636 30.509C227.106 31.1971 227.378 32.1528 227.378 33.4041V34.0905H220.717C220.813 32.6614 221.131 31.5263 221.724 30.7149V30.7149Z" fill="#00090D"/>
</svg>
