<svg width="110" height="38" viewBox="0 0 110 38" fill="none" xmlns="http://www.w3.org/2000/svg">
<path fill-rule="evenodd" clip-rule="evenodd" d="M93.2225 5.09504C93.2225 2.73927 95.1089 0.853648 97.4673 0.853648C99.8242 0.853648 101.711 2.73927 101.711 5.09504C101.711 7.40549 99.8242 9.338 97.4673 9.338C95.1086 9.338 93.2225 7.40549 93.2225 5.09504ZM8.05508 17.5863V5.09505H0.604625V36.581H8.05539V27.2955L11.261 23.7602L20.5038 36.581H29.1339L16.0713 18.5767L28.5197 5.09505H19.4189L8.05508 17.5863ZM46.0067 21.0744V21.9697C36.9532 22.629 30.4922 24.5612 30.4919 30.2646C30.4919 34.5073 34.1238 37.146 38.5563 37.146C41.9039 37.146 44.6391 36.2041 46.3833 33.753L47.2321 36.5805H53.8822C53.4103 34.5542 53.0803 30.5004 53.0803 27.4368V22.2989C53.0803 15.2285 49.3546 12.5429 42.7061 12.5429C37.3297 12.5429 33.5571 14.8987 32.0018 18.0106L38.0378 20.1776C38.5081 18.2935 40.1119 17.397 42.0934 17.397C44.5922 17.397 46.0067 18.3876 46.0067 21.0744ZM37.8956 29.7464C37.8956 31.2553 39.3102 32.2444 41.1963 32.2444C44.0266 32.2444 46.1477 31.0665 46.1477 26.7767V26.2112C41.1966 26.636 37.8956 27.2953 37.8956 29.7464ZM57.7903 13.2026V36.5806H64.9577V24.797C64.9577 21.0742 66.8442 19.5653 70.3325 19.5653C70.9937 19.5653 71.5125 19.6122 72.2659 19.7075V12.5433C68.6822 12.3545 66.1834 13.7212 64.7219 17.4924L63.4481 13.2026H57.7903ZM101.154 21.9697V21.0744C101.154 18.3876 99.739 17.397 97.2402 17.397C95.2587 17.397 93.655 18.2935 93.1846 20.1776L87.1487 18.0106C88.7039 14.8987 92.4765 12.5429 97.8529 12.5429C104.501 12.5429 108.227 15.2285 108.227 22.2989V27.4368C108.227 30.5004 108.557 34.5542 109.029 36.5805H102.379L101.53 33.753C99.7859 36.2041 97.0507 37.146 93.7031 37.146C89.2706 37.146 85.6388 34.5073 85.6388 30.2646C85.6388 24.5612 92.0997 22.629 101.154 21.9697ZM96.3426 32.2444C94.4564 32.2444 93.0419 31.2553 93.0419 29.7464C93.0419 27.2953 96.3429 26.636 101.294 26.2112V26.7767C101.294 31.0665 99.1729 32.2444 96.3426 32.2444ZM82.495 5.09505V36.581H75.3276V5.09505H82.495Z" fill="#00090D"/>
</svg>
