<svg width="223" height="42" viewBox="0 0 223 42" fill="none" xmlns="http://www.w3.org/2000/svg">
<path d="M16.0948 41.4326C13.6947 41.4326 11.5241 41.047 9.58156 40.2758C7.63899 39.5046 5.96885 38.4198 4.56871 37.0196C3.16938 35.6211 2.09826 33.9712 1.35615 32.0714C0.613241 30.1717 0.242188 28.1079 0.242188 25.88C0.242188 23.652 0.634259 21.6027 1.42002 19.7321C2.20497 17.8615 3.32702 16.2261 4.78375 14.826C6.24047 13.4266 7.95993 12.341 9.94696 11.5698C11.9316 10.7986 14.0948 10.413 16.4376 10.413C18.094 10.413 19.6574 10.6272 21.1295 11.0556C22.5999 11.4841 23.9346 12.0702 25.1351 12.8123C26.3347 13.556 27.3476 14.4121 28.1762 15.383L23.7632 20.0531C23.0494 19.3675 22.3138 18.7968 21.5571 18.3393C20.7996 17.8833 19.9929 17.5187 19.1368 17.2471C18.2791 16.9755 17.3648 16.8397 16.3939 16.8397C15.1368 16.8397 13.9881 17.0685 12.9453 17.5252C11.9017 17.9828 10.989 18.6182 10.2032 19.4322C9.41746 20.2463 8.81036 21.2034 8.38272 22.3028C7.95427 23.4022 7.74004 24.5946 7.74004 25.88C7.74004 27.1653 7.96801 28.365 8.42556 29.4789C8.88149 30.5929 9.51042 31.5573 10.3107 32.3714C11.1094 33.1854 12.0601 33.8281 13.1595 34.2994C14.2589 34.7707 15.4376 35.0059 16.6938 35.0059C17.579 35.0059 18.4149 34.8636 19.2006 34.5775C19.9856 34.2921 20.6638 33.9065 21.2354 33.4207C21.8069 32.9356 22.2645 32.3568 22.6072 31.6858C22.9492 31.0149 23.1205 30.293 23.1205 29.5218V28.4078L24.0631 29.8645H15.7949V24.1662H29.89C29.9474 24.4806 29.9903 24.9099 30.0194 25.4515C30.0477 25.9947 30.0687 26.5226 30.0832 27.0368C30.097 27.5509 30.1051 27.9365 30.1051 28.1936C30.1051 30.1362 29.7542 31.9146 29.055 33.5282C28.3549 35.1417 27.3767 36.5346 26.1197 37.7051C24.8634 38.8765 23.3784 39.7908 21.6646 40.4472C19.9508 41.1044 18.094 41.4326 16.0948 41.4326Z" fill="#00090D"/>
<path d="M36.2317 35.2631L38.5033 29.7789H52.2985L54.5273 35.2631H36.2317ZM30.5762 41.0043L42.445 11.0129H48.6139L60.397 41.0043H53.0269L47.3714 25.7944C47.1426 25.1945 46.9146 24.5519 46.6867 23.8663C46.4571 23.1808 46.2291 22.4743 46.0003 21.7451C45.7716 21.0168 45.5509 20.3038 45.3366 19.6029C45.1224 18.9036 44.943 18.2537 44.8015 17.6538L46.086 17.611C45.9154 18.3256 45.7222 19.0249 45.508 19.7104C45.2938 20.3959 45.0796 21.075 44.8653 21.7451C44.6511 22.4169 44.4151 23.0887 44.1588 23.7596C43.9009 24.4306 43.6584 25.1234 43.4296 25.8372L37.7741 41.0043H30.5762Z" fill="#00090D"/>
<path d="M73.2062 41.4327C71.2353 41.4327 69.4568 41.1966 67.8716 40.7253C66.2863 40.254 64.8797 39.5693 63.6526 38.6696C62.4238 37.7698 61.3236 36.706 60.3535 35.4772L64.7665 30.4644C66.1934 32.3787 67.6299 33.664 69.072 34.3204C70.5142 34.9785 72.0073 35.3059 73.5489 35.3059C74.3201 35.3059 75.0202 35.2064 75.6483 35.0059C76.2765 34.8063 76.7623 34.5136 77.1051 34.128C77.4478 33.7424 77.6192 33.2647 77.6192 32.6923C77.6192 32.2639 77.5125 31.8783 77.2983 31.5355C77.084 31.1928 76.7906 30.8928 76.4203 30.6358C76.0485 30.3787 75.6063 30.1435 75.0913 29.9292C74.5772 29.715 74.034 29.5291 73.4632 29.3722C72.8917 29.2154 72.3072 29.0796 71.7074 28.9648C70.0502 28.5946 68.608 28.137 67.3793 27.5938C66.1505 27.0513 65.1303 26.3877 64.3163 25.6019C63.5022 24.8161 62.8951 23.9172 62.495 22.9027C62.0948 21.8889 61.8951 20.7531 61.8951 19.4961C61.8951 18.1542 62.2023 16.9189 62.8159 15.7904C63.4303 14.6619 64.2589 13.691 65.3017 12.877C66.3437 12.0629 67.5506 11.4348 68.9217 10.9918C70.2927 10.5488 71.7212 10.3273 73.2062 10.3273C75.177 10.3273 76.8698 10.535 78.2837 10.9489C79.6968 11.3628 80.911 11.9554 81.9255 12.7266C82.9392 13.4978 83.8026 14.4267 84.5172 15.5115L80.0193 19.8389C79.4195 19.0968 78.7687 18.4824 78.0695 17.9965C77.3686 17.5115 76.6265 17.1396 75.8415 16.8826C75.055 16.6255 74.249 16.497 73.4212 16.497C72.5635 16.497 71.8279 16.6045 71.2143 16.8187C70.5991 17.0329 70.1221 17.3328 69.7794 17.7184C69.4358 18.104 69.2644 18.5681 69.2644 19.1105C69.2644 19.5963 69.4075 20.0102 69.6929 20.353C69.9783 20.6958 70.3639 21.0038 70.8497 21.2738C71.3355 21.5462 71.8925 21.7742 72.5207 21.9601C73.1488 22.146 73.806 22.2964 74.4915 22.4095C76.0622 22.724 77.4834 23.1379 78.755 23.652C80.0258 24.1662 81.1252 24.7951 82.0532 25.5372C82.9821 26.2801 83.6967 27.1589 84.1963 28.1726C84.6959 29.1871 84.9457 30.365 84.9457 31.7069C84.9457 33.7925 84.4388 35.5565 83.4251 36.9986C82.4105 38.4408 81.0258 39.541 79.2691 40.2977C77.5125 41.0543 75.4915 41.4327 73.2062 41.4327Z" fill="#00090D"/>
<path d="M97.9702 41.0043L85.9736 11.0129H93.5572L99.3412 26.3085C99.684 27.1945 99.9758 27.9657 100.219 28.6221C100.462 29.2794 100.677 29.8929 100.862 30.4645C101.048 31.036 101.219 31.6148 101.377 32.1993C101.533 32.7854 101.711 33.4499 101.912 34.192H100.584C100.813 33.2211 101.04 32.3569 101.269 31.6003C101.497 30.8436 101.755 30.057 102.04 29.2438C102.326 28.4289 102.683 27.4508 103.112 26.3085L108.681 11.0129H116.136L104.054 41.0043H97.9702Z" fill="#00090D"/>
<path d="M121.684 10.9949H129.715V41.0049H121.684V10.9949Z" fill="#00090D"/>
<path d="M147.758 41.4327C145.787 41.4327 144.009 41.1966 142.423 40.7253C140.838 40.254 139.431 39.5693 138.204 38.6696C136.976 37.7698 135.875 36.706 134.905 35.4772L139.318 30.4644C140.745 32.3787 142.182 33.664 143.624 34.3204C145.066 34.9785 146.559 35.3059 148.101 35.3059C148.872 35.3059 149.572 35.2064 150.2 35.0059C150.828 34.8063 151.314 34.5136 151.657 34.128C152 33.7424 152.171 33.2647 152.171 32.6923C152.171 32.2639 152.064 31.8783 151.85 31.5355C151.636 31.1928 151.342 30.8928 150.972 30.6358C150.6 30.3787 150.158 30.1435 149.643 29.9292C149.129 29.715 148.586 29.5291 148.015 29.3722C147.443 29.2154 146.859 29.0796 146.259 28.9648C144.602 28.5946 143.16 28.137 141.931 27.5938C140.702 27.0513 139.682 26.3877 138.868 25.6019C138.054 24.8161 137.447 23.9172 137.047 22.9027C136.647 21.8889 136.447 20.7531 136.447 19.4961C136.447 18.1542 136.754 16.9189 137.368 15.7904C137.982 14.6619 138.811 13.691 139.853 12.877C140.895 12.0629 142.102 11.4348 143.473 10.9918C144.844 10.5488 146.273 10.3273 147.758 10.3273C149.729 10.3273 151.422 10.535 152.835 10.9489C154.249 11.3628 155.463 11.9554 156.477 12.7266C157.491 13.4978 158.354 14.4267 159.069 15.5115L154.571 19.8389C153.971 19.0968 153.32 18.4824 152.621 17.9965C151.92 17.5115 151.178 17.1396 150.393 16.8826C149.607 16.6255 148.801 16.497 147.973 16.497C147.115 16.497 146.38 16.6045 145.766 16.8187C145.151 17.0329 144.674 17.3328 144.331 17.7184C143.988 18.104 143.816 18.5681 143.816 19.1105C143.816 19.5963 143.959 20.0102 144.245 20.353C144.53 20.6958 144.916 21.0038 145.401 21.2738C145.887 21.5462 146.444 21.7742 147.072 21.9601C147.701 22.146 148.358 22.2964 149.043 22.4095C150.614 22.724 152.035 23.1379 153.307 23.652C154.578 24.1662 155.677 24.7951 156.605 25.5372C157.534 26.2801 158.248 27.1589 158.748 28.1726C159.248 29.1871 159.497 30.365 159.497 31.7069C159.497 33.7925 158.991 35.5565 157.977 36.9986C156.962 38.4408 155.578 39.541 153.821 40.2977C152.064 41.0543 150.043 41.4327 147.758 41.4327Z" fill="#00090D"/>
<path d="M177.749 34.5775C178.92 34.5775 179.998 34.3633 180.983 33.9348C181.969 33.5064 182.826 32.9001 183.555 32.1143C184.283 31.3286 184.847 30.4078 185.246 29.3504C185.646 28.2947 185.847 27.137 185.847 25.88C185.847 24.6237 185.646 23.4669 185.246 22.4096C184.847 21.3538 184.283 20.4322 183.555 19.6465C182.826 18.8607 181.969 18.2536 180.983 17.8252C179.998 17.3967 178.92 17.1825 177.749 17.1825C176.578 17.1825 175.499 17.3967 174.514 17.8252C173.528 18.2536 172.664 18.8607 171.922 19.6465C171.178 20.4322 170.615 21.3538 170.229 22.4096C169.844 23.4669 169.65 24.6237 169.65 25.88C169.65 27.137 169.844 28.3011 170.229 29.3722C170.615 30.4434 171.178 31.3641 171.922 32.1353C172.664 32.9065 173.528 33.5064 174.514 33.9348C175.499 34.3633 176.578 34.5775 177.749 34.5775ZM177.792 41.4327C175.506 41.4327 173.421 41.0471 171.536 40.2759C169.65 39.5047 168.008 38.4198 166.609 37.0197C165.209 35.6211 164.124 33.9777 163.352 32.0925C162.581 30.2073 162.196 28.137 162.196 25.88C162.196 23.6238 162.581 21.5527 163.352 19.6675C164.124 17.7823 165.209 16.1405 166.609 14.7403C168.008 13.341 169.65 12.2553 171.536 11.4841C173.421 10.7129 175.492 10.3273 177.749 10.3273C180.004 10.3273 182.076 10.7129 183.961 11.4841C185.847 12.2553 187.489 13.341 188.889 14.7403C190.288 16.1405 191.366 17.7823 192.124 19.6675C192.881 21.5527 193.26 23.6238 193.26 25.88C193.26 28.1079 192.881 30.1718 192.124 32.0715C191.366 33.9712 190.288 35.6211 188.889 37.0197C187.489 38.4198 185.847 39.5047 183.961 40.2759C182.076 41.0471 180.02 41.4327 177.792 41.4327Z" fill="#00090D"/>
<path d="M214.682 41.0043L207.055 27.4653L214.51 26.3942L222.994 41.0043H214.682ZM204.999 24.8946H210.912C211.654 24.8946 212.304 24.7305 212.861 24.4015C213.418 24.0741 213.847 23.6093 214.146 23.0095C214.446 22.4096 214.597 21.7241 214.597 20.9529C214.597 20.1817 214.425 19.5034 214.083 18.9182C213.739 18.3329 213.247 17.8826 212.604 17.5682C211.961 17.2545 211.183 17.0969 210.269 17.0969H204.999V24.8946ZM198.059 41.0043V11.0129H211.555C213.467 11.0129 215.203 11.4276 216.76 12.2554C218.316 13.084 219.538 14.2198 220.424 15.6612C221.308 17.1041 221.751 18.7395 221.751 20.5673C221.751 22.4525 221.308 24.1452 220.424 25.6448C219.538 27.1436 218.324 28.3222 216.782 29.1791C215.239 30.036 213.496 30.4645 211.555 30.4645H204.999V41.0043H198.059Z" fill="#00090D"/>
<path d="M130.118 0.566794H121.251C120.551 0.566794 119.984 1.13429 119.984 1.83355C119.984 2.53281 120.551 3.1003 121.251 3.1003H124.418V5.71869H126.951V3.1003H130.118C130.818 3.1003 131.385 2.53281 131.385 1.83355C131.385 1.13429 130.818 0.566794 130.118 0.566794Z" fill="#00090D"/>
<path d="M127.797 6.9852H123.574C122.526 6.9852 121.674 7.83725 121.674 8.88573V9.51871H129.697V8.88573C129.697 7.83725 128.844 6.9852 127.797 6.9852Z" fill="#00090D"/>
</svg>
