<svg width="585" height="584" viewBox="0 0 585 584" fill="none" xmlns="http://www.w3.org/2000/svg">
<path d="M325.775 539.686C305.604 530.155 297.566 507.496 294.723 486.39C294.243 482.886 293.237 479.242 294.384 475.878C295.53 472.514 299.064 469.769 302.457 470.715C305.276 471.498 306.926 474.324 308.81 476.555C311.315 479.565 314.626 481.801 318.357 483.003C320.791 483.785 323.681 484.03 325.681 482.442C328.419 480.258 328.021 476.03 327.46 472.549C326.313 466.094 325.19 459.639 324.09 453.184C323.297 449.739 323.064 446.19 323.4 442.672C323.915 439.168 325.798 435.664 328.957 434.215C332.116 432.767 336.551 433.947 337.826 437.24C338.202 438.657 338.483 440.097 338.668 441.55C339.008 442.987 339.955 444.47 341.394 444.646C342.833 444.821 344.085 443.594 344.963 442.391C347.958 438.268 349.643 433.328 351.164 428.434C352.685 423.54 354.112 418.552 356.733 414.161C359.354 409.769 363.355 405.985 368.304 404.817C373.253 403.649 379.103 405.868 381.174 410.552C383.245 415.235 381.245 420.713 378.834 425.222C375.174 431.898 370.567 438.011 365.157 443.372C364.078 444.231 363.3 445.408 362.934 446.736C362.571 449.189 365.169 451.128 367.614 451.502C370.352 451.922 373.136 451.175 375.909 451.035C378.682 450.894 381.83 451.595 383.304 453.99C385.328 457.307 382.976 461.547 380.461 464.502C375.408 470.389 369.381 475.367 362.642 479.218C360.231 480.585 357.669 481.87 355.902 484.019C354.136 486.168 353.422 489.508 355.083 491.751C356.745 493.994 360.103 494.239 362.7 493.281C365.297 492.323 367.462 490.466 369.86 489.076C374.353 486.46 380.601 485.736 384.38 489.357C385.559 490.623 386.427 492.145 386.916 493.802C387.406 495.46 387.503 497.209 387.2 498.911C386.577 502.301 385.276 505.531 383.374 508.407C377.315 518.805 368.603 527.413 358.125 533.355C347.654 539.078 337.522 541.87 325.787 539.697" fill="#F5F5F5"/>
<path d="M328.969 525.6C330.52 513.58 332.763 501.658 335.685 489.894L337.931 480.632C338.668 477.584 339.405 474.57 340.271 471.673C342.02 466.114 344.075 460.655 346.425 455.321C348.636 450.206 350.918 445.417 353.082 440.967C355.247 436.517 357.365 432.405 359.447 428.749C362.698 422.951 366.407 417.42 370.539 412.211C372.001 410.365 373.183 408.975 373.99 408.041C374.376 407.597 374.692 407.247 374.915 406.978C375.137 406.709 375.242 406.628 375.254 406.639C375.169 406.774 375.075 406.903 374.973 407.025L374.084 408.123C373.312 409.08 372.165 410.459 370.738 412.362C366.696 417.623 363.055 423.179 359.845 428.983C357.798 432.651 355.715 436.762 353.562 441.212C351.409 445.662 349.163 450.451 346.975 455.567C344.645 460.901 342.614 466.36 340.891 471.919C339.99 474.804 339.265 477.759 338.551 480.842L336.305 490.116C333.389 501.856 331.135 513.749 329.554 525.74" fill="#E0E0E0"/>
<path d="M340.47 471.627C340.217 471.172 340.016 470.69 339.873 470.19C339.522 469.267 339.066 467.854 338.528 466.207C337.452 462.82 336.118 458.09 334.667 452.88C333.216 447.671 331.824 442.964 330.689 439.612C330.127 437.93 329.659 436.563 329.332 435.641C329.135 435.161 328.982 434.664 328.875 434.157C329.158 434.593 329.389 435.059 329.566 435.547C329.975 436.447 330.502 437.79 331.122 439.448C332.374 442.789 333.836 447.472 335.299 452.705C336.761 457.938 337.99 462.516 338.973 466.067C339.429 467.679 339.803 469.034 340.143 470.12C340.296 470.612 340.405 471.116 340.47 471.627Z" fill="#E0E0E0"/>
<path d="M383.936 455.672C383.37 455.907 382.782 456.083 382.181 456.197C381.011 456.489 379.408 456.91 377.395 457.494C373.359 458.662 367.848 460.391 361.846 462.61C355.844 464.829 350.497 467.083 346.636 468.812C344.717 469.665 343.185 470.4 342.12 470.903C341.585 471.193 341.025 471.436 340.447 471.627C340.931 471.254 341.452 470.933 342.003 470.669C343.032 470.097 344.542 469.302 346.437 468.333C350.216 466.488 355.551 464.163 361.565 461.932C366.698 460.015 371.927 458.366 377.232 456.992C379.267 456.454 380.929 456.104 382.087 455.882C382.695 455.755 383.314 455.684 383.936 455.672Z" fill="#E0E0E0"/>
<path d="M329.378 524.7C329.229 524.547 329.095 524.379 328.981 524.198L327.939 522.715C327.038 521.407 325.787 519.503 324.277 517.12C321.235 512.355 317.257 505.639 312.963 498.163C308.669 490.688 304.773 483.949 301.813 479.137L298.303 473.425L297.367 471.872C297.244 471.7 297.145 471.511 297.075 471.311C297.075 471.311 297.227 471.463 297.473 471.802C297.718 472.14 298.104 472.689 298.514 473.297C299.415 474.593 300.667 476.497 302.188 478.891C305.218 483.657 309.208 490.361 313.502 497.836C317.795 505.312 321.692 512.051 324.64 516.875L328.15 522.575C328.524 523.194 328.84 523.743 329.086 524.128C329.211 524.303 329.31 524.496 329.378 524.7Z" fill="#E0E0E0"/>
<path d="M385.749 495.442C385.584 495.586 385.399 495.704 385.199 495.793L383.573 496.657L377.536 499.799C372.434 502.462 365.438 506.211 357.716 510.311C349.994 514.411 342.962 518.16 337.826 520.706C335.252 521.979 333.146 523.042 331.695 523.661L329.94 524.432C329.747 524.534 329.543 524.613 329.332 524.666C329.499 524.526 329.684 524.408 329.881 524.315L331.519 523.451L337.557 520.297C342.646 517.646 349.643 513.897 357.365 509.785C365.087 505.674 372.13 501.948 377.255 499.402C379.829 498.129 381.935 497.066 383.386 496.447L385.07 495.676C385.283 495.564 385.512 495.485 385.749 495.442Z" fill="#E0E0E0"/>
<path d="M179.478 288.975C179.478 288.975 165.578 290.902 173.382 321.293C181.186 351.685 187.808 367.359 187.808 367.359C187.808 367.359 188.849 374.239 183.292 374.028C177.734 373.818 166.397 369.356 162.548 375.302C158.57 381.515 162.056 388.99 170.738 396.828C179.419 404.665 197.929 422.524 199.59 424.147C201.251 425.771 202.468 429.111 198.654 429.567C194.84 430.022 167.789 426.857 167.064 439.763C166.339 452.67 194.22 470.517 197.227 472.526C200.234 474.535 200.737 476.1 200.035 477.852C199.333 479.604 190.37 477.677 182.637 477.081C174.903 476.485 165.824 477.174 166.023 484.65C166.222 492.125 180.87 511.046 223.575 525.109L243.804 530.33L258.745 515.637C288.814 482.244 292.102 458.568 288.557 451.981C285.012 445.393 276.857 449.306 270.375 453.651C263.893 457.996 257.107 464.163 255.656 462.995C254.206 461.827 253.831 460.215 255.446 456.98C257.06 453.744 272.376 424.428 265.309 413.589C258.242 402.75 236.34 418.891 232.83 420.375C229.32 421.858 228.688 418.331 229.32 416.135C229.952 413.939 237.089 389.271 240.762 378.116C244.436 366.962 243.734 358.763 237.182 355.352C230.864 352.07 223.271 361.601 218.544 364.544C213.817 367.488 211.313 361.04 211.313 361.04C211.313 361.04 209.254 344.163 200.9 313.911C192.547 283.66 179.22 289.08 179.22 289.08" fill="#EBEBEB"/>
<path d="M243.793 535.353C237.744 513.161 227.647 473.449 218.813 439.355C209.98 405.261 201.954 374.519 196.01 352.257C193.038 341.138 190.628 332.144 188.99 325.895C188.171 322.8 187.528 320.382 187.083 318.724L186.592 316.855C186.486 316.434 186.451 316.212 186.451 316.212C186.451 316.212 186.533 316.411 186.662 316.831C186.79 317.252 186.966 317.894 187.2 318.689C187.68 320.347 188.37 322.741 189.236 325.825C190.991 332.027 193.471 341.009 196.49 352.128C202.539 374.32 210.647 405.167 219.48 439.191C228.314 473.215 238.329 512.962 244.273 535.224" fill="#E0E0E0"/>
<path d="M178.156 382.24C178.623 382.432 179.07 382.671 179.49 382.952C180.32 383.443 181.514 384.19 183 385.125C185.913 387.005 189.879 389.703 194.196 392.752L205.218 400.601L208.576 402.937C208.999 403.199 209.392 403.509 209.746 403.859C209.274 403.669 208.823 403.43 208.4 403.147C207.57 402.656 206.376 401.909 204.89 400.963C202 399.059 198.069 396.291 193.752 393.254L182.672 385.487L179.302 383.151C178.889 382.889 178.504 382.583 178.156 382.24Z" fill="#E0E0E0"/>
<path d="M211.442 402.89C211.29 402.796 216.497 394.398 223.06 384.132C229.624 373.865 235.088 365.619 235.24 365.712C235.392 365.806 230.186 374.215 223.61 384.482C217.035 394.749 211.594 402.96 211.442 402.89Z" fill="#E0E0E0"/>
<path d="M222.651 455.777C222.975 455.374 223.348 455.013 223.762 454.702L226.91 451.946C229.566 449.61 233.228 446.386 237.135 442.672C241.043 438.958 244.483 435.489 246.94 432.954C248.11 431.786 249.069 430.747 249.853 429.952C250.208 429.561 250.6 429.205 251.023 428.89C250.764 429.336 250.45 429.748 250.087 430.116C249.456 430.875 248.508 431.95 247.314 433.258C244.974 435.886 241.558 439.425 237.627 443.139C233.696 446.853 229.998 450.054 227.261 452.296C225.88 453.464 224.757 454.305 223.961 454.901C223.558 455.24 223.119 455.534 222.651 455.777Z" fill="#E0E0E0"/>
<path d="M188.429 443.711C188.901 443.768 189.365 443.882 189.809 444.05L193.518 445.218C196.63 446.211 200.924 447.624 205.651 449.213C210.378 450.801 214.648 452.296 217.726 453.406L221.364 454.737C221.817 454.879 222.253 455.071 222.663 455.31C222.19 455.262 221.726 455.152 221.282 454.983L217.573 453.815C214.461 452.822 210.167 451.409 205.441 449.808C200.714 448.208 196.443 446.725 193.366 445.627L189.727 444.284C189.271 444.152 188.834 443.959 188.429 443.711Z" fill="#E0E0E0"/>
<path d="M192.383 491.658C192.985 491.748 193.577 491.896 194.15 492.102L198.9 493.55C202.902 494.8 208.412 496.563 214.496 498.561C220.58 500.558 226.068 502.38 230.034 503.747L234.714 505.382C235.296 505.568 235.863 505.798 236.41 506.071C235.804 505.982 235.209 505.833 234.632 505.627L229.882 504.179C225.88 502.929 220.37 501.165 214.286 499.168C208.202 497.171 202.714 495.337 198.76 493.982L194.08 492.335C193.495 492.161 192.927 491.934 192.383 491.658Z" fill="#E0E0E0"/>
<path d="M235.451 505.429C235.863 504.924 236.321 504.458 236.82 504.039L240.692 500.406C243.957 497.334 248.449 493.071 253.281 488.224C258.114 483.377 262.384 478.88 265.449 475.61L269.076 471.732C269.503 471.236 269.969 470.776 270.469 470.354C270.128 470.903 269.736 471.419 269.299 471.895C268.503 472.865 267.31 474.231 265.789 475.913C262.805 479.277 258.593 483.832 253.738 488.679C248.882 493.527 244.378 497.755 241.008 500.745C239.323 502.228 237.954 503.431 236.983 504.249C236.506 504.684 235.994 505.079 235.451 505.429Z" fill="#E0E0E0"/>
<path d="M119.106 107.736L107.687 104.232C107.687 104.232 104.692 113.81 94.6766 110.878C92.7377 110.345 91.0126 109.224 89.7403 107.669C88.4679 106.114 87.7111 104.203 87.5747 102.2C87.4248 100.511 87.681 98.8103 88.322 97.24C88.963 95.6696 89.9703 94.2747 91.2602 93.1713C94.1969 90.5783 99.3449 89.0015 106.611 92.7508L114.648 67.0548L103.358 63.5508L98.678 78.6063C98.678 78.6063 81.5492 77.7537 76.1087 95.1685C70.9022 111.836 84.6614 120.374 91.073 122.371C95.9402 123.89 113.034 127.908 119.106 107.736Z" fill="#F5F5F5"/>
<path d="M104.887 58.2023L116.347 61.772L119.685 51.0905L108.226 47.5208L104.887 58.2023Z" fill="#F5F5F5"/>
<path d="M150.614 78.7229L155.189 77.5549C155.049 77.0362 155.015 76.4949 155.089 75.9629C155.164 75.431 155.344 74.9194 155.62 74.4585C155.896 73.9976 156.262 73.5968 156.697 73.28C157.131 72.9631 157.625 72.7368 158.149 72.6142C158.911 72.3845 159.726 72.3972 160.481 72.6504C161.235 72.9036 161.892 73.3849 162.361 74.0275C162.759 74.5611 163.024 75.1811 163.136 75.8368C163.248 76.4924 163.203 77.1652 163.004 77.8002C162.571 79.2835 161.179 80.8954 157.95 81.164L160.676 91.4541L165.192 90.2861L163.601 84.2592C165.314 83.228 166.639 81.6631 167.373 79.8056C168.106 77.9482 168.208 75.9014 167.661 73.9808C165.906 67.2998 159.471 67.3349 156.932 68.0006C154.966 68.4562 148.403 70.687 150.614 78.7229Z" fill="#EBEBEB"/>
<path d="M166.786 91.7871L162.178 93.02L163.331 97.3139L167.939 96.081L166.786 91.7871Z" fill="#EBEBEB"/>
<path d="M528.302 196.936L532.748 198.536C532.934 198.034 533.22 197.574 533.587 197.183C533.955 196.792 534.397 196.479 534.887 196.261C535.378 196.043 535.907 195.926 536.444 195.915C536.981 195.905 537.514 196.002 538.013 196.2C538.762 196.441 539.418 196.907 539.891 197.534C540.365 198.161 540.632 198.919 540.657 199.704C540.685 200.374 540.553 201.041 540.272 201.65C539.991 202.259 539.57 202.793 539.042 203.208C537.872 204.178 535.778 204.704 532.97 203.092L529.331 213.101L533.731 214.69L535.86 208.85C537.857 208.973 539.839 208.439 541.502 207.329C543.166 206.22 544.418 204.595 545.068 202.706C547.408 196.212 542.131 192.603 539.639 191.704C537.732 190.956 531.063 189.076 528.302 196.936Z" fill="#EBEBEB"/>
<path d="M533.073 216.719L528.606 215.104L527.096 219.266L531.563 220.881L533.073 216.719Z" fill="#EBEBEB"/>
<path d="M56.4642 247.768L65.8242 244.147C65.8242 244.147 62.7822 236.263 70.9371 232.957C72.4978 232.298 74.225 232.139 75.8805 232.5C77.5359 232.862 79.0382 233.728 80.1801 234.978C81.1516 236.017 81.8636 237.271 82.258 238.637C82.6524 240.003 82.7182 241.443 82.4499 242.839C81.8649 246.086 79.2909 249.847 72.5166 251.143L80.7066 272.319L90.0666 268.745L85.2696 256.341C85.2696 256.341 96.9696 247.955 91.4823 233.588C86.1588 219.852 72.54 221.418 67.3101 223.438C63.2736 224.992 49.8888 231.264 56.4642 247.768Z" fill="#F5F5F5"/>
<path d="M91.8399 273.055L82.396 276.688L85.7946 285.494L95.2385 281.862L91.8399 273.055Z" fill="#F5F5F5"/>
<path d="M531.964 283.403L525.295 285.961C525.295 285.961 527.448 291.556 521.668 293.892C520.561 294.354 519.339 294.464 518.167 294.21C516.995 293.955 515.93 293.346 515.116 292.467C514.428 291.73 513.924 290.841 513.645 289.873C513.367 288.905 513.322 287.885 513.513 286.896C513.934 284.56 515.76 281.943 520.533 281.056L514.8 266L508.201 268.535L511.594 277.33C509.193 279.164 507.462 281.735 506.667 284.647C505.872 287.559 506.058 290.651 507.195 293.448C510.951 303.177 520.568 302.08 524.312 300.643C527.144 299.533 536.621 295.095 531.964 283.403Z" fill="#F5F5F5"/>
<path d="M506.896 265.484L513.588 262.91L511.182 256.675L504.49 259.249L506.896 265.484Z" fill="#F5F5F5"/>
<path d="M550.801 541.684C550.801 541.859 435.147 541.987 292.512 541.987C149.877 541.987 34.1992 541.859 34.1992 541.684C34.1992 541.508 149.83 541.38 292.512 541.38C435.193 541.38 550.801 541.52 550.801 541.684Z" fill="#001B27"/>
<path d="M108.389 511.35C109.559 507.052 106.669 502.742 103.51 499.67C100.351 496.599 96.5718 493.772 94.9221 489.649C92.2545 482.968 95.8347 474.325 91.2951 468.753C88.6158 465.483 83.8188 464.385 81.4438 460.881C80.3456 458.95 79.6194 456.83 79.3026 454.632C76.7781 443.536 71.3104 433.321 63.4726 425.059C62.9442 434.943 65.0901 444.787 69.6853 453.558C71.5222 457.062 73.792 460.472 74.3653 464.385C75.3598 470.727 71.8029 477.233 73.3707 483.494C75.1608 490.618 83.1754 495.396 83.5498 502.731C83.8774 508.933 78.4603 514.411 78.8698 520.578C79.1979 523.219 80.1569 525.742 81.6661 527.936C86.4631 535.913 93.5299 541.403 104.224 541.228L117.328 541.683L108.389 511.35Z" fill="#4777BE"/>
<g opacity="0.3">
<path d="M108.389 511.35C109.559 507.052 106.669 502.742 103.51 499.67C100.351 496.599 96.5718 493.772 94.9221 489.649C92.2545 482.968 95.8347 474.325 91.2951 468.753C88.6158 465.483 83.8188 464.385 81.4438 460.881C80.3456 458.95 79.6194 456.83 79.3026 454.632C76.7781 443.536 71.3104 433.321 63.4726 425.059C62.9442 434.943 65.0901 444.787 69.6853 453.558C71.5222 457.062 73.792 460.472 74.3653 464.385C75.3598 470.727 71.8029 477.233 73.3707 483.494C75.1608 490.618 83.1754 495.396 83.5498 502.731C83.8774 508.933 78.4603 514.411 78.8698 520.578C79.1979 523.219 80.1569 525.742 81.6661 527.936C86.4631 535.913 93.5299 541.403 104.224 541.228L117.328 541.683L108.389 511.35Z" fill="black"/>
</g>
<path d="M119.972 541.952C121.172 542.137 122.395 542.113 123.587 541.882C125.035 541.662 126.457 541.303 127.834 540.808C129.737 540.147 131.516 539.176 133.099 537.934C134.052 537.169 134.797 536.177 135.264 535.049C135.655 533.785 135.86 532.471 135.872 531.148C135.899 529.734 136.004 528.322 136.188 526.92C136.435 525.427 136.976 523.998 137.779 522.715C139.324 520.006 141.898 517.436 142.717 513.757C143.536 510.077 142.974 506.223 142.366 502.299C141.757 498.374 141.196 494.123 142.67 490.011C144.144 485.9 146.952 482.221 148.391 477.619C149.83 473.017 149.152 467.948 149.456 463.007C149.546 460.497 150.126 458.03 151.164 455.742C152.217 453.406 153.691 451.245 154.838 448.816C157.178 443.887 157.576 438.304 158.208 432.826C158.523 430.07 158.828 427.278 159.144 424.475C159.343 421.641 159.833 418.834 160.606 416.1C161.494 413.344 162.541 410.641 163.742 408.006C164.36 406.643 164.869 405.233 165.263 403.789C165.483 402.295 165.624 400.79 165.684 399.281C165.823 396.259 165.706 393.231 165.333 390.229C164.982 387.216 164.432 384.225 164.104 381.2C164.104 381.013 164.104 380.838 164.104 380.675L164.034 380.079L163.508 380.336C160.741 381.753 158.339 383.788 156.488 386.281C154.672 388.723 153.21 391.409 152.147 394.259C149.959 399.877 149.175 405.763 148.075 411.381C146.976 417 145.572 422.524 142.693 427.196C141.254 429.532 139.511 431.658 138.013 433.924C136.387 436.135 135.276 438.681 134.761 441.376C133.977 446.912 137.031 451.771 136.399 456.677C136.114 459.08 135.316 461.394 134.059 463.463C132.889 465.553 131.473 467.492 130.139 469.431C128.787 471.333 127.612 473.354 126.629 475.47C125.704 477.54 125.157 479.759 125.015 482.022C124.699 486.437 125.319 490.619 125.015 494.566C124.649 498.329 123.548 501.984 121.774 505.324C120.194 508.536 118.428 511.444 116.953 514.271C116.216 515.672 115.526 517.05 114.964 518.44C114.433 519.775 114.041 521.16 113.794 522.575C113.403 525.045 113.371 527.559 113.701 530.039C114.045 533.496 115.34 536.791 117.445 539.558C117.766 539.976 118.123 540.367 118.509 540.726C118.768 540.997 119.054 541.239 119.364 541.45C119.855 541.812 120.112 541.976 120.112 541.976C119.177 541.238 118.326 540.399 117.573 539.476C115.565 536.699 114.351 533.429 114.063 530.015C113.766 527.567 113.821 525.089 114.227 522.657C114.474 521.276 114.866 519.925 115.397 518.627C115.99 517.222 116.658 515.85 117.398 514.516C118.884 511.713 120.662 508.816 122.277 505.581C124.104 502.189 125.242 498.469 125.623 494.637C125.974 490.607 125.366 486.402 125.693 482.104C125.844 479.914 126.379 477.767 127.273 475.762C128.262 473.69 129.437 471.712 130.783 469.852C132.117 467.913 133.532 465.974 134.749 463.836C136.085 461.689 136.939 459.278 137.253 456.77C137.885 451.549 134.854 446.667 135.638 441.516C136.151 438.939 137.226 436.507 138.786 434.391C140.271 432.16 142.026 430.034 143.466 427.64C146.449 422.84 147.888 417.21 148.976 411.568C150.064 405.927 150.872 400.087 153.024 394.574C154.06 391.803 155.482 389.192 157.248 386.818C159.029 384.425 161.339 382.475 163.999 381.119L163.402 380.78C163.402 380.955 163.402 381.13 163.461 381.317C163.788 384.377 164.338 387.367 164.631 390.357C165 393.313 165.114 396.295 164.97 399.269C164.911 400.731 164.778 402.189 164.572 403.638C164.194 405.035 163.701 406.398 163.098 407.714C161.891 410.377 160.836 413.107 159.939 415.89C159.159 418.667 158.665 421.516 158.465 424.393C158.161 427.208 157.845 429.999 157.541 432.756C156.909 438.257 156.499 443.747 154.265 448.501C153.095 450.837 151.691 453.067 150.603 455.45C149.532 457.823 148.936 460.382 148.848 462.984C148.555 468.03 149.21 472.97 147.841 477.432C146.472 481.894 143.629 485.608 142.19 489.824C140.751 494.041 141.278 498.503 141.909 502.415C142.541 506.328 143.173 510.183 142.331 513.652C141.488 517.121 139.078 519.714 137.51 522.493C136.684 523.832 136.131 525.32 135.884 526.873C135.707 528.292 135.613 529.719 135.603 531.148C135.605 532.438 135.416 533.721 135.042 534.956C134.608 536.026 133.912 536.97 133.017 537.701C131.476 538.941 129.741 539.92 127.881 540.597C126.522 541.12 125.115 541.512 123.681 541.765C122.804 541.924 121.916 542.01 121.025 542.022C120.288 541.952 119.972 541.952 119.972 541.952Z" fill="#001B27"/>
<path d="M161.366 387.893C161.304 388.018 161.26 388.152 161.238 388.29L160.957 389.458C160.699 390.498 160.384 392.051 159.892 393.99C159.401 395.929 158.196 398.125 157.178 400.823C155.986 403.86 154.947 406.955 154.066 410.097C153.059 413.601 152.182 417.455 151.246 421.613C150.45 426.042 149.041 430.339 147.057 434.379C145.981 436.505 144.717 438.654 143.816 441.014C142.872 443.423 142.239 445.943 141.933 448.512C141.267 453.834 140.322 459.116 139.101 464.339C136.48 475.049 133.977 485.258 131.695 494.555C129.414 503.852 127.261 512.168 125.482 519.2C123.704 526.231 122.359 531.837 121.376 535.844C120.919 537.759 120.557 539.266 120.299 540.375C120.194 540.854 120.1 541.24 120.03 541.543C120.017 541.679 120.017 541.816 120.03 541.952C120.098 541.831 120.149 541.702 120.182 541.567C120.264 541.251 120.381 540.878 120.522 540.399C120.814 539.313 121.224 537.806 121.75 535.902C122.803 531.931 124.289 526.289 126.126 519.34C127.963 512.39 130.104 503.981 132.502 494.742C134.901 485.503 137.335 475.224 139.979 464.502C141.192 459.266 142.114 453.967 142.74 448.629C143.039 446.121 143.652 443.661 144.565 441.306C145.489 438.97 146.671 436.879 147.748 434.73C150.088 430.467 151.012 425.888 151.936 421.765C152.86 417.642 153.679 413.741 154.639 410.26C155.598 406.78 156.604 403.673 157.611 400.986C158.617 398.3 159.728 396.081 160.208 394.072C160.688 392.063 160.91 390.568 161.121 389.493C161.199 389.01 161.269 388.621 161.331 388.325C161.366 388.033 161.39 387.893 161.366 387.893Z" fill="#001B27"/>
<path d="M122.289 542.011C130.841 536.93 133.298 521.512 129.73 512.238C126.161 502.964 119.914 494.485 118.954 484.592C118.205 476.988 120.709 469.186 118.954 461.757C116.556 451.724 106.751 443.957 106.868 433.643C106.927 427.862 110.226 422.419 109.957 416.637C109.641 409.559 104.189 403.93 100.819 397.692C95.6477 388.127 95.3084 376.832 93.5417 366.156C91.775 355.481 87.6917 343.964 78.1679 338.697C76.7639 347.795 74.3654 354.033 75.1142 366.355C75.395 370.782 80.543 379.203 81.245 388.956C81.6662 394.796 81.947 400.566 82.3097 406.359C82.6724 412.152 83.0234 417.759 85.0475 423.038C86.6036 427.091 89.0957 430.77 90.254 434.952C92.4185 442.812 89.5637 451.304 91.3187 459.293C92.8046 466.044 97.4846 471.849 98.444 478.693C99.7778 488.306 93.5534 498.304 96.7358 507.473C98.327 512.028 102.071 515.649 103.136 520.379C103.966 524.023 103.066 527.889 103.814 531.545C104.984 537.455 116.287 542.057 122.312 541.672" fill="#4777BE"/>
<path d="M80.5076 347.679C80.4916 347.85 80.4916 348.022 80.5076 348.193C80.5076 348.578 80.6246 349.069 80.6948 349.688C80.8937 351.008 81.116 352.935 81.5606 355.434C82.0052 357.934 83.339 360.76 84.3686 364.171C85.3982 367.581 86.5448 371.483 87.5042 375.851C88.4636 380.219 89.306 385.09 90.1601 390.311C91.0142 395.532 91.9502 401.22 94.5476 406.663C95.7176 409.384 97.0982 412.117 98.0576 415.037C99.0406 418.026 99.6459 421.126 99.8594 424.264C100.338 430.924 101.177 437.552 102.375 444.12C104.996 457.599 107.488 470.435 109.758 482.127C112.027 493.819 114.309 504.249 116.134 513.079C117.959 521.909 119.457 528.964 120.498 533.94L121.668 539.604C121.809 540.212 121.914 540.691 122.007 541.064C122.039 541.236 122.086 541.404 122.148 541.567C122.169 541.396 122.169 541.223 122.148 541.053C122.078 540.667 121.996 540.188 121.89 539.569C121.633 538.215 121.27 536.299 120.814 533.87C119.831 528.882 118.474 521.757 116.707 512.962C114.941 504.167 112.846 493.62 110.518 481.975C108.19 470.33 105.838 457.447 103.206 443.98C102.007 437.412 101.164 430.783 100.678 424.124C100.456 420.921 99.8307 417.758 98.8181 414.71C97.7768 411.743 96.4079 408.999 95.2028 406.289C92.6288 400.928 91.6928 395.333 90.8036 390.135C89.9144 384.938 89.0603 380.056 88.0424 375.664C87.0245 371.272 85.913 367.348 84.7664 363.984C83.6198 360.62 82.3445 357.77 81.8297 355.329C81.3149 352.888 81.0692 350.926 80.8235 349.629C80.7065 349.022 80.6129 348.531 80.5427 348.146C80.5402 347.99 80.5285 347.834 80.5076 347.679Z" fill="#001B27"/>
<path d="M493.12 103.683H488.44C488.443 104.213 488.34 104.738 488.136 105.228C487.932 105.717 487.632 106.161 487.254 106.532C486.875 106.903 486.426 107.195 485.932 107.39C485.438 107.585 484.911 107.679 484.38 107.666C483.596 107.694 482.824 107.478 482.169 107.046C481.515 106.615 481.012 105.991 480.73 105.26C480.483 104.652 480.384 103.994 480.441 103.34C480.498 102.687 480.709 102.056 481.057 101.499C481.853 100.191 483.584 99.0114 486.72 99.5603V89.0483H482.122V95.192C480.235 95.7465 478.583 96.9038 477.418 98.4862C476.253 100.069 475.641 101.989 475.675 103.952C475.675 110.75 481.783 112.327 484.403 112.327C486.404 112.373 493.213 111.894 493.12 103.683Z" fill="#4777BE"/>
<path d="M482.087 86.9224H486.755V82.5657H482.087V86.9224Z" fill="#4777BE"/>
<path d="M518.638 97.4695C518.653 97.2713 518.653 97.0721 518.638 96.8739C518.638 96.4534 518.638 95.8811 518.638 95.1452C518.638 94.7715 518.638 94.3393 518.579 93.8721C518.521 93.4049 518.451 92.891 518.369 92.3537C518.287 91.8164 518.205 91.1857 518.111 90.5667L517.62 88.5811C516.751 85.1616 515.328 81.9067 513.408 78.9451C510.62 74.559 506.861 70.8695 502.421 68.1603C497.981 65.4511 492.978 63.7943 487.797 63.3172C486.241 63.18 484.677 63.1488 483.117 63.2238C482.333 63.2238 481.525 63.2238 480.777 63.3756L478.366 63.7377C475.059 64.3513 471.859 65.4411 468.866 66.9731C465.741 68.6238 462.869 70.7123 460.337 73.1752C457.744 75.7983 455.577 78.8089 453.913 82.0987C452.123 85.4902 450.951 89.172 450.45 92.9727C450.304 93.9357 450.222 94.9073 450.205 95.8811C450.126 96.8563 450.107 97.8352 450.146 98.8127C450.401 105.078 452.362 111.156 455.821 116.391V116.029C454.194 120.082 452.591 124.065 451.024 127.943L450.743 128.655L451.48 128.445L464.233 124.941L463.929 124.871C468.224 128.117 473.227 130.302 478.53 131.248C480.99 131.706 483.497 131.859 485.995 131.704C487.199 131.686 488.4 131.572 489.587 131.365L491.33 131.096C491.903 130.991 492.5 130.816 493.015 130.687C500.874 128.699 507.767 123.983 512.46 117.384C514.211 114.953 515.616 112.292 516.637 109.477C516.859 108.858 517.07 108.309 517.269 107.701C517.468 107.094 517.573 106.533 517.702 106.008C517.831 105.482 517.971 104.945 518.088 104.454C518.205 103.964 518.24 103.485 518.31 103.029C518.416 102.13 518.579 101.336 518.614 100.693C518.65 100.051 518.614 99.4318 518.614 98.9412C518.614 98.4507 518.614 98.147 518.614 97.8784C518.614 97.6097 518.614 97.5163 518.614 97.5163C518.596 97.6363 518.596 97.7583 518.614 97.8784C518.614 98.147 518.614 98.4974 518.533 98.9412C518.451 99.3851 518.462 100.004 518.416 100.682C518.369 101.359 518.193 102.153 518.053 103.018C516.937 109.482 513.965 115.484 509.497 120.294C505.029 125.104 499.259 128.516 492.886 130.115C492.336 130.244 491.786 130.407 491.225 130.512L489.505 130.769C488.344 130.963 487.171 131.068 485.995 131.085C483.543 131.214 481.085 131.053 478.671 130.606C473.492 129.654 468.607 127.506 464.408 124.334L464.268 124.217H464.092L451.328 127.721L451.772 128.223L456.581 116.321L456.651 116.134L456.546 115.959C454.242 112.479 452.607 108.602 451.726 104.524C451.321 102.633 451.079 100.71 451 98.7777C450.961 97.8235 450.981 96.8679 451.059 95.9161C451.066 94.9655 451.144 94.0168 451.293 93.0779C451.742 89.3662 452.847 85.7636 454.557 82.4374C456.183 79.2224 458.294 76.2758 460.816 73.7007C463.294 71.2829 466.108 69.2335 469.17 67.6155C472.096 66.0959 475.23 65.0137 478.472 64.4035L480.812 64.0414C481.596 63.9246 482.38 63.9363 483.152 63.8779C484.677 63.8054 486.205 63.8327 487.726 63.9596C492.823 64.405 497.751 66.0039 502.136 68.6349C506.521 71.2659 510.248 74.8598 513.034 79.1436C514.964 82.0536 516.41 85.2564 517.316 88.6278L517.842 90.59C517.948 91.2091 518.041 91.758 518.135 92.342C518.228 92.926 518.299 93.3932 518.38 93.8604C518.462 94.3276 518.439 94.7481 518.474 95.1219C518.474 95.846 518.568 96.4184 518.603 96.8388C518.58 97.0496 518.592 97.2626 518.638 97.4695Z" fill="#001B27"/>
<path d="M169.732 235.212H237.3C237.3 235.212 237.3 178.575 296.256 177.571C326.875 177.034 342.752 197.065 349.21 212.401C356.698 230.213 354.428 250.513 344.39 267.04C332.935 285.903 308.248 304.86 262.712 296.847L262.279 447.134H329.098V358.039C329.098 358.039 422.803 333.861 422.803 230.727C422.803 132.089 342.904 110.785 299.953 109.406C276.062 108.647 267.404 107.619 237.85 111.813C200.187 117.185 168.937 160.845 169.732 235.212Z" fill="#4777BE"/>
<path d="M329.905 478.459H262.092V541.683H329.905V478.459Z" fill="#4777BE"/>
<path opacity="0.1" d="M329.905 478.459H262.092V541.683H329.905V478.459Z" fill="black"/>
<path opacity="0.1" d="M169.732 235.212H237.3C237.3 235.212 237.3 178.575 296.256 177.571C326.875 177.034 342.752 197.065 349.21 212.401C356.698 230.213 354.428 250.513 344.39 267.04C332.935 285.903 308.248 304.86 262.712 296.847L262.279 447.134H329.098V358.039C329.098 358.039 422.803 333.861 422.803 230.727C422.803 132.089 342.904 110.785 299.953 109.406C276.062 108.647 267.404 107.619 237.85 111.813C200.187 117.185 168.937 160.845 169.732 235.212Z" fill="black"/>
<path d="M141.734 235.212H209.313C209.313 235.212 209.313 178.575 268.269 177.571C298.888 177.034 314.765 197.065 321.212 212.401C328.712 230.213 326.442 250.513 316.403 267.04C304.949 285.903 279.829 303.049 234.293 295.072V447.134H301.111V358.039C301.111 358.039 394.817 333.861 394.817 230.727C394.817 132.089 306.201 109.185 268.281 109.185C239.277 109.22 140.459 116.216 141.734 235.212Z" fill="#4777BE"/>
<path opacity="0.3" d="M141.734 235.212H209.313C209.313 235.212 209.313 178.575 268.269 177.571C298.888 177.034 314.765 197.065 321.212 212.401C328.712 230.213 326.442 250.513 316.403 267.04C304.949 285.903 279.829 303.049 234.293 295.072V447.134H301.111V358.039C301.111 358.039 394.817 333.861 394.817 230.727C394.817 132.089 306.201 109.185 268.281 109.185C239.277 109.22 140.459 116.216 141.734 235.212Z" fill="black"/>
<path d="M301.919 478.459H234.105V541.683H301.919V478.459Z" fill="#4777BE"/>
<path opacity="0.3" d="M301.919 478.459H234.105V541.683H301.919V478.459Z" fill="black"/>
<path d="M275.898 177.875C275.563 177.903 275.226 177.903 274.892 177.875C274.225 177.875 273.265 177.653 272.013 177.641C268.474 177.467 264.926 177.616 261.413 178.085C256.204 178.743 251.079 179.945 246.121 181.671C243.199 182.69 240.352 183.916 237.604 185.338C234.633 186.82 231.835 188.626 229.262 190.723C226.706 192.838 224.416 195.254 222.44 197.917C220.568 200.38 218.86 202.963 217.328 205.65C214.769 210.225 212.74 215.076 211.279 220.109C210.288 223.506 209.607 226.985 209.243 230.505C209.102 231.743 209.067 232.724 209.032 233.378C209.033 233.715 209.002 234.051 208.939 234.382C208.908 234.048 208.908 233.712 208.939 233.378C208.939 232.712 208.939 231.731 209.044 230.481C209.313 226.924 209.936 223.403 210.904 219.969C212.311 214.878 214.314 209.97 216.871 205.346C218.407 202.63 220.123 200.019 222.008 197.532C223.999 194.825 226.318 192.373 228.911 190.232C231.515 188.107 234.348 186.277 237.358 184.777C240.124 183.329 242.99 182.08 245.934 181.04C250.937 179.321 256.111 178.146 261.366 177.536C264.902 177.102 268.473 177.02 272.025 177.291C272.99 177.352 273.951 177.469 274.903 177.641C275.24 177.695 275.572 177.773 275.898 177.875Z" fill="#001B27"/>
<path d="M377.711 165.856C377.711 165.856 377.629 165.774 377.489 165.599C377.348 165.424 377.138 165.12 376.904 164.782L374.669 161.628C374.189 160.95 373.675 160.168 373.066 159.362L370.96 156.804L368.55 153.849C367.673 152.821 366.643 151.828 365.613 150.742C364.584 149.656 363.531 148.5 362.337 147.39C361.144 146.28 359.869 145.147 358.558 143.979C357.903 143.395 357.26 142.811 356.558 142.192L354.381 140.475C352.895 139.307 351.421 138.139 349.818 136.971C342.832 131.981 335.421 127.612 327.67 123.913L321.504 121.133L315.385 118.797C313.385 117.968 311.349 117.384 309.383 116.73C307.418 116.076 305.499 115.41 303.533 114.955L297.941 113.495C296.127 113.016 294.325 112.724 292.605 112.327C290.885 111.93 289.224 111.579 287.598 111.381L282.918 110.703C279.958 110.201 277.243 110.096 274.88 109.862C273.71 109.769 272.54 109.64 271.569 109.594L268.784 109.523L264.923 109.395H263.917H263.578C263.69 109.377 263.805 109.377 263.917 109.395H264.923H268.784H271.58C272.598 109.395 273.71 109.535 274.903 109.617C277.243 109.815 280.004 109.897 282.965 110.376L287.645 111.007C289.271 111.194 290.932 111.614 292.664 111.93C294.395 112.245 296.174 112.572 298.034 113.098L303.65 114.546C305.592 114.99 307.511 115.714 309.5 116.31C311.489 116.905 313.513 117.478 315.514 118.365L321.668 120.701L327.869 123.493C335.661 127.2 343.101 131.602 350.099 136.644C351.714 137.812 353.188 139.062 354.674 140.218L356.85 141.795C357.552 142.379 358.196 142.963 358.851 143.594L362.618 147.098C363.788 148.266 364.841 149.434 365.882 150.497C366.924 151.56 367.918 152.599 368.796 153.639L371.136 156.617L373.218 159.21C373.815 160.028 374.318 160.822 374.786 161.546C375.699 162.913 376.412 163.987 376.916 164.758L377.465 165.611C377.558 165.682 377.64 165.764 377.711 165.856Z" fill="#001B27"/>
<path d="M370.668 310.688C370.529 310.941 370.36 311.176 370.165 311.389L368.55 313.293C367.883 314.145 367.041 315.161 365.999 316.294C364.958 317.427 363.847 318.759 362.489 320.137C361.132 321.515 359.681 323.057 358.032 324.611C356.382 326.164 354.592 327.799 352.685 329.504C344.32 336.793 335.151 343.106 325.354 348.321C323.084 349.489 320.943 350.657 318.872 351.556C316.801 352.456 314.87 353.378 313.092 354.126C311.314 354.873 309.676 355.492 308.248 356.041C306.821 356.59 305.569 357.034 304.539 357.361L302.199 358.12C301.928 358.228 301.645 358.307 301.357 358.354C301.609 358.21 301.876 358.093 302.153 358.004L304.493 357.139C305.51 356.777 306.739 356.31 308.155 355.726C309.57 355.142 311.208 354.558 312.963 353.729C314.718 352.9 316.661 352.117 318.685 351.101C320.709 350.085 322.873 349.01 325.131 347.83C329.589 345.378 334.398 342.504 339.253 339.187C344.109 335.87 348.473 332.378 352.357 329.084C354.264 327.402 356.09 325.825 357.716 324.237C359.342 322.648 360.863 321.212 362.209 319.833C363.554 318.455 364.736 317.182 365.789 316.061C366.842 314.94 367.708 313.958 368.41 313.141L370.048 311.284C370.238 311.069 370.445 310.869 370.668 310.688Z" fill="#001B27"/>
<path d="M299.93 441.831C299.754 441.831 299.614 423.073 299.614 399.935C299.614 376.797 299.754 358.027 299.93 358.027C300.105 358.027 300.234 376.785 300.234 399.935C300.234 423.084 300.093 441.831 299.93 441.831Z" fill="#001B27"/>
<path d="M302.503 537.397C302.328 537.397 302.199 524.233 302.199 507.998C302.199 491.763 302.328 478.588 302.503 478.588C302.679 478.588 302.808 491.751 302.808 507.998C302.808 524.245 302.667 537.397 302.503 537.397Z" fill="#001B27"/>
<path d="M369.018 226.253C367.848 228.589 372.212 230.505 374.728 231.264C377.294 231.893 379.95 232.075 382.578 231.801C386.088 231.614 389.68 231.287 392.711 229.559C395.364 227.917 397.486 225.544 398.818 222.726C400.132 219.916 401.17 216.987 401.918 213.978C401.918 213.978 374.271 215.776 369.018 226.253Z" fill="#5C187A"/>
<g opacity="0.4">
<path d="M369.018 226.253C367.848 228.589 372.212 230.505 374.728 231.264C377.294 231.893 379.95 232.075 382.578 231.801C386.088 231.614 389.68 231.287 392.711 229.559C395.364 227.917 397.486 225.544 398.818 222.726C400.132 219.916 401.17 216.987 401.918 213.978C401.918 213.978 374.271 215.776 369.018 226.253Z" fill="black"/>
</g>
<path d="M447.104 218.778C451.661 222.005 457.124 223.714 462.711 223.66C465.39 223.809 468.031 222.979 470.141 221.324C471.042 220.495 471.72 219.444 472.645 218.649C473.276 218.112 474.014 217.703 474.61 217.131C474.925 216.86 475.168 216.516 475.317 216.129C475.466 215.742 475.517 215.323 475.464 214.912C475.233 213.897 474.664 212.991 473.85 212.342C470.679 210.544 466.888 210.614 463.238 210.695C459.585 210.853 455.976 211.558 452.532 212.786C449.701 213.744 446.741 215.122 445.302 217.692" fill="#5C187A"/>
<g opacity="0.4">
<path d="M475.464 214.912C475.051 213.927 474.323 213.106 473.393 212.576C470.223 210.777 466.888 210.614 463.238 210.696C459.585 210.854 455.976 211.558 452.532 212.786C449.701 213.744 446.741 215.122 445.302 217.692L447.104 218.778C451.661 222.006 457.124 223.714 462.711 223.66C465.39 223.809 468.031 222.979 470.141 221.324C471.042 220.495 471.72 219.444 472.645 218.65C473.276 218.112 474.014 217.704 474.61 217.131C474.925 216.861 475.168 216.516 475.317 216.129C475.466 215.742 475.517 215.324 475.464 214.912Z" fill="black"/>
</g>
<path d="M393.12 260.698L451.444 261.469C451.563 261.468 451.68 261.44 451.786 261.387C451.892 261.333 451.984 261.256 452.054 261.16C452.125 261.065 452.172 260.954 452.192 260.838C452.212 260.721 452.205 260.601 452.17 260.488L445.325 239.183C445.325 239.183 446.332 228.531 447.724 215.73C449.842 196.283 452.661 171.836 452.696 171.906C448.707 160.74 425.166 158.848 425.166 158.848L398.338 160.437L397.402 158.86L389.68 162.446C387.996 163.228 386.376 164.142 384.836 165.179C379.735 168.578 367.45 176.392 365.204 185.093C360.021 205.241 368.796 227.725 368.796 227.725L374.435 223.322C375.856 222.229 377.349 221.234 378.904 220.343L390.207 250.583C389.534 251.006 388.965 251.574 388.54 252.245C388.114 252.916 387.845 253.673 387.75 254.461C387.656 256.913 388.92 259.857 393.12 260.698Z" fill="#5C187A"/>
<g opacity="0.3">
<path d="M418.146 225.05C419.995 215.122 419.024 204.914 418.029 194.869C414.8 203.045 414.917 212.389 411.489 220.495C411.069 221.351 410.762 222.258 410.576 223.193C410.487 223.663 410.51 224.147 410.644 224.606C410.779 225.064 411.02 225.485 411.348 225.833C412.284 226.685 413.688 226.218 414.929 226.078C416.039 225.867 417.119 225.522 418.146 225.05Z" fill="black"/>
</g>
<g opacity="0.4">
<path d="M396.63 248.037C401.31 249.66 406.294 246.635 411.243 246.098C414.519 245.747 417.795 246.495 421.048 247.02C427.625 248.083 434.316 248.248 440.938 247.511C441.954 247.455 442.949 247.197 443.863 246.752C444.336 246.43 444.722 245.998 444.989 245.493C445.257 244.988 445.396 244.426 445.396 243.855C434.374 242.687 423.365 242.056 412.343 240.923C409.6 240.456 406.79 240.548 404.083 241.192C400.76 242.22 398.233 244.825 395.893 247.406" fill="black"/>
</g>
<path d="M473.78 211.081C469.018 200.37 452.228 170.75 452.228 170.75L439.229 187.02L442.26 218.965C442.26 218.965 449.128 211.315 468.327 211.163C469.723 211.218 471.088 211.585 472.323 212.236C473.558 212.887 474.631 213.805 475.464 214.924L473.78 211.081Z" fill="#5C187A"/>
<path d="M395.729 205.416C394.802 203.145 394.066 200.801 393.53 198.408C392.803 196.077 392.271 193.69 391.938 191.271C392.852 193.546 393.584 195.889 394.126 198.279C394.853 200.611 395.389 202.998 395.729 205.416Z" fill="#001B27"/>
<path d="M438.247 184.859C438.67 185.158 439.062 185.498 439.417 185.876C440.45 186.872 441.42 187.933 442.318 189.052C445.344 192.744 447.47 197.086 448.531 201.737C449.082 204.308 449.204 206.952 448.894 209.563C448.601 211.957 448.145 214.059 447.841 215.835C447.537 217.61 447.349 219.058 447.256 220.063C447.253 220.585 447.198 221.105 447.092 221.616C447.009 221.095 446.986 220.566 447.022 220.04C447.073 218.608 447.206 217.181 447.42 215.765C447.665 213.978 448.075 211.852 448.344 209.504C448.615 206.952 448.476 204.374 447.934 201.865C446.887 197.302 444.854 193.021 441.979 189.321C439.838 186.448 438.153 184.953 438.247 184.859Z" fill="#001B27"/>
<path d="M426.336 258.128C425.93 258.309 425.501 258.434 425.061 258.502C424.561 258.633 424.053 258.731 423.54 258.794C422.943 258.875 422.265 259.004 421.504 259.039C419.722 259.202 417.928 259.202 416.146 259.039C413.965 258.815 411.81 258.385 409.711 257.754C407.622 257.084 405.601 256.22 403.673 255.173C402.111 254.302 400.627 253.298 399.239 252.171C398.631 251.704 398.139 251.213 397.695 250.804C397.311 250.46 396.948 250.093 396.607 249.707C396.281 249.406 396.001 249.06 395.776 248.679C395.858 248.597 397.11 249.999 399.508 251.832C400.909 252.897 402.392 253.849 403.942 254.682C405.848 255.682 407.837 256.514 409.886 257.17C411.949 257.791 414.064 258.228 416.204 258.478C417.952 258.666 419.712 258.721 421.469 258.642C424.476 258.478 426.313 258.034 426.336 258.128Z" fill="#001B27"/>
<path d="M444.343 251.494C444.618 252.022 444.774 252.604 444.799 253.199C444.986 254.623 444.878 256.07 444.483 257.45C444.081 258.863 443.267 260.123 442.143 261.071C441.289 261.784 440.634 262.006 440.599 261.947C440.564 261.889 441.114 261.503 441.851 260.779C442.797 259.794 443.484 258.59 443.851 257.275C444.787 254.192 444.12 251.505 444.343 251.494Z" fill="#001B27"/>
<path d="M441.172 255.605C441.426 256.806 441.324 258.055 440.88 259.2C440.435 260.345 439.667 261.336 438.668 262.052C438.539 261.924 439.628 260.768 440.306 258.98C440.985 257.193 440.996 255.617 441.172 255.605Z" fill="#001B27"/>
<path d="M430.736 217.178C430.116 218.224 429.42 219.223 428.653 220.168C428.048 221.223 427.364 222.23 426.605 223.181C426.83 221.949 427.361 220.792 428.15 219.817C428.773 218.733 429.663 217.824 430.736 217.178Z" fill="#001B27"/>
<path d="M390.698 188.889C389.807 188.366 388.944 187.797 388.113 187.183C383.952 184.454 379.229 182.694 374.295 182.033C373.262 181.957 372.234 181.821 371.218 181.624C372.254 181.481 373.305 181.481 374.342 181.624C379.411 182.056 384.265 183.861 388.382 186.845C389.245 187.415 390.025 188.103 390.698 188.889Z" fill="#001B27"/>
<path d="M452.228 170.364C450.134 172.048 448.178 173.895 446.378 175.889C444.721 178.017 443.238 180.274 441.944 182.64C442.082 181.844 442.355 181.078 442.751 180.374C443.598 178.623 444.659 176.983 445.91 175.492C447.165 174.004 448.604 172.681 450.192 171.556C450.797 171.044 451.486 170.641 452.228 170.364Z" fill="#001B27"/>
<path d="M428.15 160.74C428.256 160.909 428.343 161.089 428.407 161.278C428.635 161.806 428.819 162.353 428.957 162.913C429.45 164.994 429.45 167.162 428.957 169.243C428.229 172.35 426.563 175.16 424.183 177.291C421.18 179.83 417.354 181.192 413.419 181.122C409.481 181.135 405.644 179.878 402.48 177.536C399.959 175.615 397.914 173.141 396.501 170.306C395.55 168.408 394.88 166.382 394.512 164.291C394.405 163.728 394.334 163.158 394.302 162.586C394.269 162.385 394.269 162.179 394.302 161.978C394.302 161.978 394.43 162.796 394.758 164.244C395.213 166.276 395.933 168.239 396.899 170.084C398.326 172.834 400.353 175.229 402.831 177.092C405.88 179.346 409.567 180.573 413.361 180.596C417.153 180.666 420.845 179.372 423.762 176.952C426.061 174.899 427.691 172.206 428.442 169.22C428.963 167.204 429.035 165.099 428.653 163.053C428.43 161.511 428.079 160.764 428.15 160.74Z" fill="#001B27"/>
<g opacity="0.3">
<path d="M432.245 219.245C432.245 218.661 432.151 217.972 431.636 217.68C431.473 217.598 431.293 217.555 431.11 217.555C430.927 217.555 430.747 217.598 430.583 217.68C430.256 217.857 429.966 218.095 429.729 218.381C428.354 219.81 427.29 221.508 426.605 223.368L432.338 222.866C432.303 221.686 432.28 220.448 432.245 219.245Z" fill="black"/>
</g>
<g opacity="0.3">
<path d="M451.28 207.203C450.704 203.928 449.267 200.865 447.115 198.326C449.596 206.409 448.765 210.976 447.373 216.512L447.677 215.741C449.28 212.506 451.713 210.473 451.28 207.203Z" fill="black"/>
</g>
<path d="M439.827 478.716L436.328 531.101L413.513 530.832L409.921 476.369L439.827 478.716Z" fill="#FFBE9D"/>
<path d="M436.971 524.21V525.728C436.971 525.728 462.711 536.054 462.957 540.912L411.84 540.632L412.635 523.661C420.252 527.224 428.22 527.667 436.971 524.21Z" fill="#5C187A"/>
<path d="M417.819 529.104C417.334 529.25 416.919 529.568 416.651 529.998C416.384 530.428 416.284 530.941 416.368 531.44C416.493 531.938 416.807 532.368 417.243 532.641C417.679 532.913 418.204 533.006 418.708 532.9C419.229 532.744 419.673 532.401 419.954 531.937C420.235 531.473 420.333 530.921 420.229 530.389C420.044 529.884 419.669 529.472 419.184 529.238C418.699 529.005 418.142 528.969 417.632 529.139" fill="white"/>
<path d="M411.84 540.632L412.027 536.556L460.98 538.331C460.98 538.331 463.25 539.335 462.981 540.924L411.84 540.632Z" fill="#001B27"/>
<path d="M437.159 525.869C437.159 526.114 435.895 526.219 434.666 527.037C433.438 527.854 432.771 528.87 432.549 528.777C432.326 528.683 432.701 527.235 434.21 526.301C435.719 525.366 437.217 525.6 437.159 525.869Z" fill="#001B27"/>
<path d="M442.506 528.111C442.564 528.357 441.476 528.765 440.622 529.817C439.768 530.868 439.522 531.977 439.265 531.966C439.007 531.954 438.867 530.541 439.955 529.268C441.043 527.995 442.494 527.936 442.506 528.111Z" fill="#001B27"/>
<path d="M445.512 534.535C445.278 534.535 444.939 533.367 445.594 531.977C446.25 530.588 447.408 530.085 447.513 530.284C447.618 530.482 446.893 531.218 446.343 532.351C445.793 533.484 445.77 534.512 445.512 534.535Z" fill="#001B27"/>
<path d="M435.661 95.6007C436.983 92.3303 435.381 88.3708 432.537 86.2567C429.541 84.2876 425.887 83.5783 422.37 84.2828C418.9 85.0091 415.541 86.1872 412.378 87.7868C410.908 86.3062 409.054 85.2628 407.024 84.7731C404.993 84.2834 402.867 84.3667 400.881 85.0137C398.896 85.6607 397.13 86.8459 395.78 88.4369C394.43 90.028 393.55 91.9623 393.237 94.0239C391.972 93.7061 390.644 93.7381 389.396 94.1165C388.148 94.4949 387.027 95.2054 386.152 96.1719C385.278 97.1384 384.684 98.3242 384.433 99.6023C384.183 100.88 384.286 102.202 384.731 103.426L400.55 108.974L417.819 139.342C420.371 141.516 423.628 142.689 426.983 142.641C430.337 142.594 433.56 141.329 436.049 139.084C438.539 136.839 440.125 133.767 440.512 130.44C440.9 127.113 440.061 123.76 438.153 121.005C439.121 120.146 439.943 119.136 440.587 118.015C441.967 117.2 443.171 116.12 444.129 114.836C445.087 113.553 445.78 112.092 446.168 110.539C447.701 103.777 442.459 96.395 435.661 95.6007Z" fill="#001B27"/>
<path d="M425.189 158.848C424.207 153.908 423.528 150.52 423.54 150.555C423.551 150.59 432.9 146.935 432.221 133.935C431.894 127.464 429.425 117.267 427.132 108.998C425.072 101.546 418.111 93.335 410.752 95.7061L388.44 106.568C386.205 107.293 385.819 109.395 386.345 111.673V112.841L395.015 148.652L398.677 164.653C399.458 167.939 401.442 170.814 404.24 172.712C407.038 174.61 410.446 175.393 413.794 174.908C415.622 174.651 417.378 174.024 418.955 173.066C420.532 172.107 421.895 170.837 422.963 169.333C424.03 167.829 424.778 166.123 425.161 164.32C425.544 162.517 425.553 160.655 425.189 158.848Z" fill="#FFBE9D"/>
<path d="M427.05 117.641C427.144 118.055 427.075 118.49 426.857 118.855C426.64 119.22 426.29 119.488 425.88 119.603C425.673 119.661 425.457 119.676 425.244 119.648C425.032 119.62 424.827 119.549 424.642 119.44C424.457 119.331 424.297 119.186 424.17 119.013C424.043 118.84 423.952 118.644 423.903 118.435C423.809 118.022 423.879 117.589 424.097 117.226C424.315 116.863 424.664 116.597 425.073 116.485C425.279 116.425 425.495 116.408 425.708 116.434C425.92 116.461 426.125 116.53 426.31 116.639C426.495 116.747 426.656 116.891 426.784 117.064C426.911 117.236 427.001 117.432 427.05 117.641Z" fill="#001B27"/>
<path d="M426.032 115.153C425.868 115.41 424.453 114.768 422.721 115.153C420.989 115.538 419.89 116.66 419.656 116.485C419.422 116.309 419.656 115.982 420.135 115.468C420.779 114.789 421.616 114.324 422.534 114.137C423.439 113.942 424.383 114.044 425.225 114.429C425.88 114.697 426.102 115.048 426.032 115.153Z" fill="#001B27"/>
<path d="M410.062 121.472C410.155 121.885 410.086 122.318 409.868 122.681C409.65 123.044 409.301 123.31 408.892 123.422C408.69 123.481 408.478 123.499 408.269 123.476C408.06 123.452 407.857 123.388 407.674 123.285C407.49 123.183 407.328 123.046 407.198 122.881C407.067 122.716 406.971 122.527 406.914 122.324C406.821 121.91 406.89 121.475 407.107 121.11C407.325 120.745 407.675 120.477 408.084 120.362C408.287 120.304 408.5 120.286 408.709 120.31C408.919 120.335 409.122 120.4 409.306 120.504C409.49 120.607 409.652 120.746 409.781 120.912C409.911 121.078 410.006 121.268 410.062 121.472Z" fill="#001B27"/>
<path d="M409.207 119.276C409.055 119.533 407.628 118.879 405.896 119.276C404.165 119.673 403.065 120.771 402.831 120.607C402.597 120.444 402.831 120.105 403.311 119.58C403.957 118.907 404.794 118.446 405.709 118.26C406.613 118.068 407.555 118.166 408.4 118.54C409.02 118.82 409.289 119.136 409.207 119.276Z" fill="#001B27"/>
<path d="M418.018 130.255C418.875 129.783 419.787 129.414 420.732 129.157C421.165 129.017 421.574 128.842 421.586 128.527C421.525 128.062 421.325 127.627 421.013 127.277L418.989 124.17C416.157 119.743 414.004 116.076 414.18 115.994C414.355 115.912 416.801 119.381 419.632 123.808L421.609 126.938C421.998 127.417 422.209 128.016 422.206 128.632C422.171 128.8 422.1 128.958 421.997 129.095C421.893 129.233 421.761 129.346 421.609 129.426C421.381 129.547 421.137 129.637 420.884 129.695C419.959 130.011 418.994 130.2 418.018 130.255Z" fill="#001B27"/>
<path d="M423.54 150.555C417.622 151.89 411.449 151.559 405.709 149.597C405.709 149.597 411.84 157.586 424.207 153.767L423.54 150.555Z" fill="#EB996E"/>
<path d="M409.5 116.8C409.383 117.302 407.593 117.291 405.557 117.793C403.521 118.295 401.907 119.054 401.579 118.657C401.439 118.47 401.673 117.98 402.293 117.489C403.117 116.796 404.096 116.311 405.147 116.076C406.19 115.829 407.276 115.829 408.318 116.076C409.149 116.228 409.582 116.566 409.5 116.8Z" fill="#001B27"/>
<path d="M425.365 109.64C425.084 110.107 423.587 109.991 421.855 110.329C420.123 110.668 418.755 111.252 418.345 110.913C418.158 110.738 418.345 110.294 418.848 109.745C419.621 109.097 420.555 108.669 421.551 108.507C422.531 108.31 423.546 108.383 424.488 108.718C425.201 109.045 425.482 109.407 425.365 109.64Z" fill="#001B27"/>
<path d="M393.951 98.2054C394.209 99.4706 394.744 100.663 395.517 101.699C396.29 102.735 397.282 103.588 398.422 104.198C399.562 104.808 400.823 105.159 402.115 105.228C403.407 105.296 404.698 105.08 405.896 104.594C407.745 103.847 409.664 102.445 411.536 103.123C413.408 103.8 414.18 106.463 415.97 107.456C418.602 108.928 421.82 106.381 424.757 106.638C427.097 106.837 428.863 108.624 430.677 110.142C432.49 111.661 434.994 112.805 437.042 111.707C436.573 109.757 435.878 107.868 434.971 106.078C434.056 104.276 432.542 102.847 430.689 102.036C429.659 101.628 428.547 101.487 427.565 100.985C425.447 99.9106 424.499 97.4812 422.967 95.6474C421.96 94.4919 420.692 93.5924 419.268 93.0237C417.843 92.4549 416.304 92.2333 414.777 92.377C412.249 92.634 409.851 93.9071 407.3 93.802C405.417 93.7202 403.615 92.8793 401.731 92.9143C398.069 92.9143 395.319 96.1847 393.284 99.2332" fill="#001B27"/>
<path d="M406.283 100.88C404.598 100.752 401.158 100.401 400.023 99.2099C398.87 97.9225 397.399 96.9601 395.756 96.4189C394.113 95.8778 392.357 95.7769 390.663 96.1263C388.982 96.6266 387.506 97.6525 386.453 99.0528C385.4 100.453 384.825 102.154 384.813 103.905C382.766 104.404 380.892 105.445 379.388 106.919C377.885 108.393 376.808 110.245 376.272 112.28C375.727 114.409 375.709 116.639 376.219 118.778C376.728 120.916 377.75 122.899 379.197 124.555C379.9 125.433 380.541 126.358 381.116 127.324C380.322 128.306 379.625 129.362 379.033 130.477C376.354 136.387 383.62 138.653 383.62 138.653C383.62 142.624 387.305 142.601 389.657 142.589C392.009 142.578 393.307 148.85 395.144 148.605L393.284 129.251C393.556 129.357 393.846 129.412 394.138 129.414C398.572 129.496 397.414 121.11 395.987 118.902C397.308 117.261 398.423 115.464 399.309 113.553C400.113 110.631 400.169 107.555 399.473 104.606C400.959 104.419 407.008 100.927 406.283 100.88Z" fill="#001B27"/>
<path d="M393.869 130.279C393.718 129.664 393.413 129.097 392.983 128.631C392.553 128.165 392.012 127.816 391.411 127.615C390.809 127.415 390.166 127.37 389.543 127.484C388.919 127.598 388.334 127.869 387.843 128.27C386.673 129.274 386.053 130.956 386.755 133.771C388.65 141.293 395.822 137.847 395.776 137.637C395.729 137.427 394.688 133.385 393.869 130.279Z" fill="#FFBE9D"/>
<path d="M392.757 135.359C392.757 135.359 392.652 135.488 392.453 135.64C392.176 135.851 391.828 135.948 391.482 135.908C390.616 135.815 389.622 134.74 389.247 133.374C389.069 132.735 389.033 132.065 389.142 131.411C389.154 131.157 389.227 130.91 389.355 130.69C389.484 130.471 389.663 130.285 389.879 130.15C390.021 130.074 390.185 130.049 390.344 130.081C390.502 130.113 390.644 130.2 390.745 130.325C390.897 130.5 390.885 130.664 390.932 130.676C390.979 130.687 391.061 130.5 390.932 130.208C390.842 130.035 390.698 129.896 390.522 129.811C390.275 129.711 389.998 129.711 389.75 129.811C389.456 129.951 389.203 130.162 389.012 130.425C388.822 130.689 388.702 130.996 388.662 131.318C388.51 132.054 388.538 132.815 388.744 133.537C388.875 134.216 389.203 134.84 389.688 135.333C390.173 135.825 390.793 136.164 391.47 136.305C391.69 136.314 391.91 136.274 392.112 136.187C392.315 136.1 392.495 135.969 392.64 135.803C392.792 135.546 392.792 135.371 392.757 135.359Z" fill="#EB996E"/>
<path d="M434.269 119.779C434.269 119.779 434.959 119.253 435.918 118.085C437.242 116.402 438.054 114.375 438.258 112.245C438.413 110.791 438.27 109.32 437.837 107.923C437.337 106.321 436.411 104.884 435.158 103.765C433.711 102.503 431.958 101.641 430.074 101.264C428.19 100.887 426.24 101.009 424.417 101.616C424.066 101.733 423.739 101.908 423.411 102.048C423.083 102.188 422.791 102.399 422.487 102.574L422.019 102.831V102.317C422.009 101.412 421.672 100.541 421.071 99.8641C420.455 99.2069 419.7 98.696 418.86 98.3691C417.271 97.708 415.51 97.5769 413.84 97.9953C410.611 98.7312 407.873 100.203 405.288 100.507C403.26 100.858 401.174 100.442 399.438 99.3385C398.98 99.0238 398.583 98.6279 398.268 98.1705C398.081 97.8552 397.987 97.68 398.01 97.6683C398.434 98.2451 398.952 98.7465 399.543 99.1516C401.251 100.136 403.258 100.472 405.194 100.098C406.541 99.8447 407.859 99.4532 409.125 98.9297C410.612 98.3363 412.137 97.8408 413.688 97.4464C414.553 97.2374 415.443 97.147 416.333 97.1777C417.271 97.2272 418.194 97.4407 419.059 97.8084C419.953 98.19 420.752 98.7644 421.399 99.4904C422.091 100.281 422.48 101.291 422.498 102.34L422.03 102.083L423.002 101.523C423.364 101.383 423.704 101.196 424.078 101.067C425.999 100.41 428.06 100.273 430.051 100.669C432.042 101.065 433.893 101.98 435.415 103.321C436.731 104.511 437.694 106.038 438.2 107.736C438.725 109.537 438.796 111.439 438.406 113.273C438.016 115.107 437.177 116.816 435.965 118.248C435.58 118.687 435.144 119.079 434.666 119.416C434.549 119.553 434.415 119.674 434.269 119.779Z" fill="#455A64"/>
<path d="M432.748 93.3698C431.98 92.9805 431.161 92.7013 430.314 92.5405C429.347 92.4085 428.362 92.5004 427.436 92.8091C426.237 93.1754 425.195 93.932 424.476 94.9583L424.184 95.3671L424.008 94.8999C423.397 93.4641 422.414 92.2169 421.159 91.2868C419.905 90.3568 418.424 89.7776 416.871 89.6088C414.431 89.5172 412.027 90.2135 410.015 91.5944C408.301 92.7098 406.478 93.649 404.574 94.3976C403.262 94.8932 401.848 95.0616 400.456 94.8882C400.085 94.8198 399.721 94.7181 399.368 94.5845C399.134 94.4794 399.005 94.421 399.017 94.3976C399.029 94.3743 399.543 94.5495 400.491 94.6429C401.837 94.7268 403.185 94.5073 404.434 94.0005C406.284 93.1952 408.058 92.2257 409.734 91.1039C410.769 90.462 411.867 89.9259 413.01 89.5037C414.267 89.0463 415.61 88.8747 416.941 89.0015C418.601 89.1823 420.18 89.809 421.511 90.8148C422.842 91.8205 423.875 93.1677 424.499 94.713H424.043C424.848 93.6153 425.997 92.8178 427.307 92.4471C428.303 92.1588 429.353 92.1068 430.373 92.2952C431.018 92.4176 431.637 92.655 432.198 92.996C432.398 93.0938 432.583 93.2197 432.748 93.3698Z" fill="#455A64"/>
<path d="M417.339 133.713C417.066 133.484 416.747 133.317 416.405 133.22C416.062 133.123 415.702 133.1 415.35 133.152C414.938 133.24 414.549 133.413 414.208 133.66C413.868 133.908 413.583 134.224 413.373 134.589C413.373 134.589 413.314 134.647 413.302 134.682C413.141 134.949 413.068 135.259 413.092 135.57C413.143 135.908 413.276 136.229 413.48 136.504C413.684 136.778 413.953 136.999 414.262 137.146C414.756 137.397 415.316 137.488 415.865 137.409C416.414 137.329 416.924 137.083 417.327 136.703C417.71 136.299 417.924 135.765 417.926 135.21C417.928 134.654 417.718 134.119 417.339 133.713Z" fill="#5C187A"/>
<path d="M417.924 137.345C417.83 137.345 417.725 136.995 417.409 136.516C417.029 135.874 416.46 135.364 415.78 135.055C415.1 134.746 414.341 134.652 413.606 134.787C413.033 134.869 412.682 135.032 412.647 134.951C412.612 134.869 412.881 134.589 413.513 134.367C414.34 134.101 415.236 134.151 416.028 134.507C416.828 134.862 417.46 135.51 417.795 136.317C418.041 136.925 418.006 137.333 417.924 137.345Z" fill="#001B27"/>
<path d="M394.044 138.794C394.044 138.794 394.383 139.378 393.939 140.265C393.687 140.796 393.245 141.213 392.699 141.433C392.358 141.555 391.994 141.596 391.634 141.554C391.275 141.511 390.93 141.386 390.628 141.188C390.32 141.001 390.059 140.746 389.867 140.442C389.674 140.138 389.554 139.794 389.516 139.436C389.481 138.859 389.651 138.288 389.996 137.824C390.604 137.053 391.283 137.03 391.283 137.1C391.283 137.17 390.768 137.369 390.359 138.069C390.122 138.462 390.023 138.922 390.078 139.378C390.122 139.644 390.223 139.898 390.374 140.122C390.526 140.346 390.724 140.534 390.955 140.674C391.184 140.82 391.44 140.916 391.709 140.956C391.977 140.997 392.25 140.98 392.511 140.908C392.943 140.753 393.316 140.467 393.576 140.09C394.033 139.366 393.951 138.794 394.044 138.794Z" fill="#5C187A"/>
<path d="M390.101 138.338C390.16 138.338 390.101 138.735 389.551 138.992C389.281 139.104 388.985 139.137 388.697 139.086C388.408 139.035 388.141 138.903 387.926 138.705C387.71 138.507 387.556 138.252 387.481 137.97C387.407 137.688 387.415 137.39 387.504 137.112C387.619 136.796 387.837 136.528 388.124 136.352C388.604 136.06 388.966 136.177 388.955 136.247C388.943 136.317 388.674 136.399 388.381 136.691C388.238 136.871 388.15 137.089 388.129 137.318C388.109 137.547 388.157 137.777 388.267 137.979C388.377 138.181 388.544 138.346 388.747 138.453C388.951 138.561 389.182 138.606 389.411 138.583C389.809 138.502 390.019 138.291 390.101 138.338Z" fill="#5C187A"/>
<path d="M402.96 242.068C402.96 242.068 431.929 243.75 449.058 243.902C462.314 244.03 468.234 240.514 470.878 232C473.101 224.863 468.328 211.163 468.328 211.163C459.354 211.163 453.82 212.447 448.052 215.145L449.584 221.406L402.878 225.424L402.96 242.068Z" fill="#FFBE9D"/>
<path d="M459.318 228.087C458.062 226.456 456.595 224.999 454.954 223.754C453.195 222.679 451.298 221.846 449.315 221.277C449.939 221.188 450.576 221.244 451.175 221.441C452.647 221.788 454.043 222.402 455.294 223.251C456.546 224.103 457.63 225.181 458.488 226.428C459.143 227.386 459.389 228.052 459.318 228.087Z" fill="#EB996E"/>
<path d="M392.359 215.099C392.359 215.099 383.397 217.248 376.81 221.639L383.83 240.631C386.17 246.868 393.319 249.975 399.04 246.705C407.85 241.671 410.962 227.001 410.962 227.001L420.638 185.093L404.598 175.06L392.418 215.099" fill="#FFBE9D"/>
<path d="M404.539 175.06L405.194 161.277L401.603 147.261C401.404 146.49 401.31 145.521 401.942 145.054C402.255 144.814 402.642 144.69 403.037 144.703C403.431 144.715 403.809 144.864 404.106 145.124C405.077 146.128 409.757 158.381 409.757 158.381C409.757 158.381 416.859 154.129 418.123 153.919C419.387 153.709 420.966 157.528 421.071 157.82C421.118 158.676 421.118 159.534 421.071 160.39C421.071 160.39 425.459 160.518 425.857 161.114C426.176 162.331 426.345 163.582 426.36 164.84C426.36 164.84 428.22 165.435 428.513 166.837C428.805 168.238 429.413 170.551 428.513 171.065C427.612 171.579 425.786 172.583 425.786 172.583C425.786 172.583 425.049 179.732 424.85 180.386C424.652 181.04 420.545 185.058 420.545 185.058L404.539 175.06Z" fill="#FFBE9D"/>
<path d="M389.61 246.985C389.61 246.985 390.043 247.242 390.955 247.534C392.29 247.952 393.702 248.064 395.085 247.861C397.309 247.545 399.391 246.586 401.076 245.105C403.303 243.088 405.184 240.72 406.645 238.097C407.505 236.554 408.23 234.94 408.81 233.273C409.418 231.438 409.922 229.57 410.319 227.678C411.231 223.742 412.226 219.502 413.279 214.994C415.385 205.988 417.748 195.92 420.299 185.069V184.988H420.357C421.165 184.193 421.972 183.387 422.779 182.546C423.177 182.126 423.575 181.706 423.949 181.273C424.137 181.051 424.335 180.83 424.488 180.608C424.606 180.388 424.674 180.144 424.686 179.895C425.002 177.559 425.248 175.141 425.505 172.7V172.548L425.646 172.478L427.881 171.229C428.044 171.123 428.302 171.007 428.407 170.913C428.519 170.812 428.593 170.676 428.618 170.528C428.672 170.14 428.672 169.747 428.618 169.36C428.504 168.503 428.328 167.656 428.091 166.825C427.693 166.099 427.025 165.557 426.231 165.318L426.032 165.248V165.05C426.032 164.372 425.962 163.672 425.88 162.982C425.848 162.637 425.797 162.294 425.728 161.955C425.7 161.805 425.653 161.66 425.587 161.522C425.587 161.441 425.587 161.522 425.517 161.452C425.454 161.419 425.387 161.392 425.318 161.371C423.911 161.065 422.476 160.904 421.036 160.892H420.732V160.588C420.732 159.864 420.732 159.058 420.732 158.252C420.684 157.977 420.589 157.713 420.451 157.47C420.334 157.189 420.194 156.921 420.053 156.64C419.779 156.099 419.458 155.583 419.094 155.098C418.928 154.873 418.727 154.675 418.497 154.514C418.412 154.443 418.308 154.398 418.198 154.386C418.087 154.373 417.976 154.394 417.877 154.444C417.311 154.661 416.76 154.914 416.227 155.204C414.051 156.372 411.922 157.54 409.839 158.801L409.535 158.988L409.406 158.661C408.306 155.893 407.207 153.16 406.13 150.485C405.592 149.142 405.066 147.798 404.527 146.479C404.444 146.183 404.28 145.917 404.052 145.71C403.824 145.503 403.543 145.365 403.24 145.311C402.961 145.218 402.658 145.223 402.381 145.325C402.105 145.427 401.872 145.619 401.719 145.871C401.574 146.122 401.512 146.413 401.544 146.701C401.544 146.958 401.708 147.355 401.778 147.67C401.965 148.347 402.141 149.013 402.316 149.679C402.667 151.022 403.006 152.342 403.357 153.65C404.044 156.282 404.718 158.852 405.381 161.359V161.441C405.147 166.237 404.925 170.831 404.715 175.223V175.2L394.056 209.819L391.049 219.455C390.698 220.542 390.429 221.394 390.242 221.99C390.054 222.586 389.937 222.842 389.937 222.842C389.937 222.842 389.996 222.539 390.16 221.966L390.897 219.409C391.575 217.154 392.547 213.896 393.775 209.738C396.302 201.375 399.894 189.438 404.235 175.048V175.106C404.438 170.73 404.644 166.136 404.855 161.324V161.406C404.188 158.894 403.498 156.325 402.807 153.709L401.754 149.737C401.579 149.072 401.403 148.394 401.216 147.728C401.116 147.379 401.034 147.024 400.971 146.666C400.927 146.26 401.013 145.851 401.216 145.498C401.433 145.133 401.767 144.853 402.164 144.703C402.557 144.589 402.972 144.576 403.371 144.665C403.771 144.755 404.14 144.945 404.445 145.217C404.739 145.492 404.957 145.838 405.077 146.222L406.68 150.228C407.768 152.914 408.856 155.647 409.968 158.404L409.535 158.252C411.629 157.014 413.735 155.776 415.958 154.62C416.52 154.326 417.098 154.065 417.69 153.837C417.875 153.76 418.076 153.732 418.275 153.755C418.475 153.784 418.667 153.856 418.836 153.966C419.118 154.167 419.367 154.412 419.574 154.69C419.965 155.201 420.306 155.748 420.591 156.325C420.744 156.617 420.884 156.897 421.013 157.189C421.179 157.498 421.29 157.834 421.34 158.182C421.34 159.011 421.34 159.782 421.34 160.518L421.048 160.203C422.552 160.213 424.05 160.385 425.517 160.717C425.618 160.752 425.716 160.795 425.81 160.845C425.938 160.915 426.044 161.02 426.114 161.149C426.205 161.338 426.271 161.538 426.313 161.744C426.383 162.118 426.43 162.469 426.477 162.831C426.547 163.543 426.594 164.244 426.629 164.945L426.418 164.664C426.896 164.805 427.341 165.04 427.726 165.358C428.11 165.675 428.425 166.067 428.653 166.51C428.909 167.397 429.097 168.303 429.214 169.22C429.296 169.687 429.296 170.165 429.214 170.633C429.163 170.916 429.014 171.172 428.793 171.357C428.601 171.485 428.402 171.602 428.196 171.707L425.973 172.864L426.126 172.642C425.856 175.083 425.611 177.477 425.283 179.848L425.213 180.304C425.186 180.488 425.109 180.662 424.991 180.806C424.818 181.062 424.627 181.304 424.417 181.53C424.02 181.974 423.622 182.406 423.247 182.827C422.44 183.668 421.633 184.474 420.814 185.268L420.896 185.128C418.322 195.967 415.935 206.035 413.794 215.04C412.729 219.537 411.711 223.777 410.775 227.701C410.375 229.607 409.859 231.487 409.231 233.331C408.629 235.014 407.885 236.644 407.008 238.202C405.513 240.859 403.588 243.251 401.31 245.28C399.574 246.771 397.439 247.722 395.167 248.013C393.754 248.202 392.315 248.058 390.967 247.592C390.624 247.467 390.292 247.314 389.973 247.137L389.61 246.985Z" fill="#EB996E"/>
<path d="M421.083 160.425C421.083 160.507 420.685 160.553 420.065 160.577C419.278 160.592 418.494 160.686 417.725 160.857C416.983 161.039 416.299 161.405 415.736 161.92C415.315 162.317 415.128 162.656 415.034 162.621C414.94 162.586 415.034 162.165 415.42 161.628C415.965 160.948 416.723 160.471 417.573 160.273C418.392 160.072 419.243 160.032 420.077 160.156C420.709 160.238 421.083 160.343 421.083 160.425Z" fill="#EB996E"/>
<path d="M417.69 160.553C417.538 160.495 417.526 160.133 417.69 159.747C417.854 159.362 418.088 159.093 418.24 159.152C418.392 159.21 418.415 159.572 418.24 159.957C418.064 160.343 417.807 160.612 417.69 160.553Z" fill="#EB996E"/>
<path d="M426.559 164.793C425.423 165.144 424.237 165.305 423.049 165.272C422.675 165.259 422.303 165.337 421.965 165.497C421.627 165.658 421.333 165.897 421.107 166.195C420.802 166.673 420.908 167.071 420.814 167.094C420.72 167.117 420.44 166.708 420.732 166.008C420.893 165.613 421.187 165.287 421.563 165.085C421.996 164.848 422.474 164.704 422.967 164.664C424.162 164.482 425.38 164.525 426.559 164.793Z" fill="#EB996E"/>
<path d="M425.786 168.998C425.95 168.998 426.044 169.862 425.997 170.925C425.95 171.988 425.775 172.829 425.611 172.829C425.447 172.829 425.342 171.953 425.389 170.89C425.435 169.827 425.611 168.986 425.786 168.998Z" fill="#EB996E"/>
<path d="M430.642 200.452L431.683 196.878C431.731 196.714 431.821 196.566 431.943 196.447C432.066 196.329 432.217 196.244 432.382 196.202C432.548 196.159 432.721 196.16 432.886 196.205C433.05 196.25 433.201 196.337 433.321 196.457L434.69 197.847L435.533 194.472C435.582 194.277 435.691 194.102 435.843 193.97C435.996 193.839 436.185 193.757 436.386 193.737C436.586 193.717 436.788 193.758 436.964 193.856C437.14 193.954 437.282 194.104 437.37 194.285L439.277 198.279L430.642 200.452Z" fill="white"/>
<path d="M439.3 199.81C437.991 200.441 436.601 200.889 435.17 201.141C433.785 201.593 432.343 201.844 430.888 201.889C433.581 200.808 436.413 200.109 439.3 199.81Z" fill="white"/>
<path d="M369.72 179.872C369.72 179.872 369.287 180.316 368.679 181.262C367.862 182.609 367.325 184.107 367.099 185.665C366.766 187.986 366.695 190.337 366.888 192.673C367.017 195.325 367.228 198.221 367.555 201.258C368.11 206.444 368.934 211.598 370.024 216.699C370.434 218.661 370.808 220.203 371.065 221.371C371.182 221.862 371.288 222.27 371.37 222.621C371.451 222.971 371.463 223.065 371.463 223.065C371.463 223.065 371.405 222.925 371.323 222.644C371.241 222.364 371.112 221.873 370.983 221.394C370.691 220.308 370.293 218.743 369.813 216.781C368.676 211.682 367.828 206.523 367.275 201.328C366.947 198.291 366.748 195.383 366.631 192.732C366.454 190.393 366.54 188.043 366.888 185.724C367.14 184.145 367.713 182.634 368.573 181.285C368.89 180.765 369.276 180.29 369.72 179.872Z" fill="white"/>
<path d="M394.348 163.964L394.079 164.104L393.307 164.478C392.64 164.793 391.669 165.26 390.511 165.902C387.491 167.584 384.558 169.416 381.724 171.392C378.378 173.728 375.418 175.854 373.253 177.396L370.691 179.206L369.977 179.685C369.897 179.748 369.811 179.803 369.72 179.848C369.786 179.77 369.865 179.703 369.954 179.65L370.632 179.136L373.148 177.255C375.289 175.679 378.237 173.483 381.584 171.194C384.423 169.209 387.377 167.391 390.429 165.751C391.599 165.132 392.582 164.688 393.272 164.396L394.056 164.069C394.29 163.987 394.29 163.952 394.348 163.964Z" fill="white"/>
<path d="M450.146 171.568C450.072 171.527 450.005 171.476 449.947 171.416L449.42 170.96C448.768 170.411 448.085 169.9 447.373 169.43C444.998 167.918 442.478 166.647 439.85 165.634C437.23 164.598 434.554 163.709 431.835 162.971C430.782 162.679 429.94 162.469 429.343 162.329L428.676 162.154C428.595 162.137 428.516 162.109 428.442 162.072H428.688L429.367 162.2C429.963 162.317 430.817 162.504 431.87 162.773C434.615 163.464 437.312 164.334 439.943 165.377C442.586 166.39 445.109 167.69 447.467 169.255C448.448 169.918 449.347 170.694 450.146 171.568Z" fill="white"/>
<path d="M394.676 260.721C394.517 260.693 394.363 260.642 394.22 260.569C393.813 260.391 393.422 260.18 393.05 259.938C392.419 259.561 391.87 259.064 391.432 258.475C390.994 257.886 390.677 257.216 390.499 256.505C390.178 255.068 390.338 253.566 390.955 252.23C391.134 251.814 391.362 251.422 391.634 251.062C391.821 250.816 391.95 250.7 391.962 250.711C391.642 251.209 391.357 251.728 391.107 252.265C390.564 253.577 390.437 255.025 390.745 256.411C391.08 257.78 391.914 258.975 393.085 259.763C394.056 260.464 394.699 260.674 394.676 260.721Z" fill="white"/>
<path d="M390.956 248.071C391.204 248.535 391.389 249.03 391.505 249.543C391.689 250.034 391.799 250.55 391.833 251.073C391.567 250.62 391.377 250.127 391.271 249.613C391.08 249.121 390.973 248.599 390.956 248.071Z" fill="white"/>
<path d="M406.774 509.948L442.459 509.773L441.815 386.608L441.476 261.316L393.12 260.697L384.427 277.049C380.87 283.623 378.603 290.814 377.746 298.237C377.161 303.913 381.42 322.368 382.894 327.04L396.197 369.158L406.774 509.948Z" fill="#001B27"/>
<path d="M451.947 261.468L491.166 368.189C493.489 375.065 494.261 382.369 493.426 389.577C492.59 396.786 490.169 403.721 486.334 409.886L440.797 498.654L415.198 466.674L453.293 387.25L419.714 332.88L425.365 261.632L441.183 261.375L451.947 261.468Z" fill="#001B27"/>
<path d="M438.224 297.221C438.224 297.221 438.224 297.408 438.224 297.77C438.224 298.132 438.282 298.692 438.329 299.382C438.411 300.818 438.516 302.885 438.657 305.56C438.926 310.968 439.3 318.735 439.827 328.325C440.353 337.914 440.798 349.349 441.383 362.08C441.663 368.434 441.968 375.103 442.272 382.018C442.494 385.522 442.401 389.026 442.436 392.53C442.471 396.034 442.436 399.724 442.436 403.392C442.436 432.744 442.529 459.316 442.564 478.576C442.564 488.177 442.564 495.956 442.564 501.364C442.564 504.038 442.564 506.117 442.564 507.566C442.564 508.243 442.564 508.734 442.564 509.178C442.564 509.622 442.564 509.727 442.564 509.727C442.564 509.727 442.564 509.54 442.564 509.178V507.566C442.564 506.117 442.564 504.062 442.494 501.364C442.494 495.956 442.401 488.189 442.33 478.588C442.248 459.327 442.143 432.755 442.026 403.404C442.026 399.736 442.026 396.115 442.026 392.541C442.026 388.967 442.096 385.44 441.874 382.029C441.582 375.126 441.289 368.457 441.02 362.103C440.482 349.395 439.99 337.961 439.593 328.336C439.195 318.712 438.902 310.98 438.68 305.572C438.586 302.909 438.516 300.83 438.469 299.382C438.469 298.692 438.469 298.214 438.469 297.77C438.469 297.326 438.224 297.221 438.224 297.221Z" fill="#455A64"/>
<path d="M437.322 263.571C437.459 263.947 437.542 264.34 437.568 264.739C437.697 265.486 437.837 266.573 438.001 267.927C438.305 270.626 438.633 274.375 438.82 278.521C439.007 282.668 439.019 286.429 438.96 289.15C438.96 290.505 438.878 291.614 438.82 292.374C438.832 292.768 438.785 293.162 438.68 293.542C438.532 292.083 438.481 290.616 438.527 289.15C438.527 286.429 438.399 282.691 438.212 278.545C438.024 274.398 437.767 270.672 437.568 268.033C437.402 266.551 437.32 265.061 437.322 263.571Z" fill="#455A64"/>
<path d="M429.46 265.977C429.519 266.059 428.852 266.362 428.664 267.308C428.612 267.565 428.626 267.831 428.706 268.08C428.786 268.33 428.929 268.555 429.121 268.733C429.352 268.948 429.641 269.092 429.952 269.148C430.263 269.204 430.584 269.169 430.876 269.049C431.156 268.904 431.39 268.685 431.552 268.414C431.713 268.144 431.795 267.833 431.788 267.519C431.778 267.257 431.7 267.003 431.563 266.78C431.425 266.557 431.233 266.373 431.004 266.245C430.529 266.015 429.998 265.922 429.472 265.977C429.472 265.977 429.589 265.825 429.893 265.731C430.332 265.625 430.794 265.67 431.203 265.86C431.53 265.996 431.813 266.219 432.019 266.506C432.226 266.793 432.348 267.131 432.373 267.483C432.42 267.918 432.328 268.357 432.112 268.737C431.896 269.117 431.566 269.42 431.168 269.604C430.77 269.787 430.325 269.841 429.894 269.758C429.464 269.675 429.071 269.46 428.77 269.142C428.521 268.895 428.345 268.585 428.26 268.245C428.176 267.906 428.186 267.549 428.29 267.215C428.408 266.778 428.672 266.394 429.039 266.129C429.273 265.965 429.448 265.942 429.46 265.977Z" fill="#455A64"/>
<path d="M410.74 263.863C410.912 264.231 411.019 264.626 411.056 265.031C411.244 266.079 411.28 267.149 411.161 268.208C410.993 269.784 410.537 271.316 409.816 272.728C408.945 274.484 407.655 276 406.059 277.143C404.464 278.285 402.612 279.019 400.666 279.28C399.109 279.513 397.522 279.453 395.986 279.105C394.947 278.88 393.947 278.506 393.015 277.996C392.662 277.829 392.339 277.608 392.055 277.342C393.348 277.922 394.697 278.372 396.08 278.685C397.744 279.03 399.462 279.027 401.125 278.677C402.788 278.326 404.36 277.635 405.742 276.647C407.124 275.659 408.286 274.396 409.154 272.938C410.022 271.479 410.578 269.857 410.787 268.173C410.924 266.738 410.909 265.294 410.74 263.863Z" fill="#455A64"/>
<path d="M456.651 274.095C455.888 274.183 455.114 274.091 454.393 273.826C452.625 273.27 451.038 272.254 449.795 270.883C448.54 269.517 447.679 267.838 447.303 266.024C447.118 265.284 447.118 264.51 447.303 263.77C447.408 263.77 447.42 264.622 447.771 265.93C448.245 267.621 449.107 269.177 450.289 270.477C451.471 271.777 452.94 272.783 454.58 273.417C455.797 273.896 456.663 273.978 456.651 274.095Z" fill="#455A64"/>
<path d="M470.586 389.143C469.999 389.81 469.298 390.368 468.515 390.79C467.693 391.31 466.798 391.704 465.859 391.958C464.677 392.27 463.431 392.238 462.267 391.864C460.224 391.095 458.472 389.706 457.26 387.893C456.703 387.212 456.242 386.457 455.891 385.65C456.522 386.252 457.094 386.913 457.599 387.624C458.841 389.269 460.519 390.535 462.443 391.28C463.425 391.542 464.45 391.601 465.456 391.455C466.461 391.308 467.427 390.959 468.293 390.428C469.032 389.956 469.797 389.527 470.586 389.143Z" fill="#455A64"/>
<path d="M461.647 395.952C460.264 394.522 459.029 392.957 457.961 391.28C456.731 389.718 455.657 388.04 454.755 386.269C456.147 387.694 457.387 389.259 458.453 390.941C459.693 392.493 460.764 394.173 461.647 395.952Z" fill="#455A64"/>
<path d="M401.696 301.344C401.532 301.402 401.123 300.736 400.76 299.837C400.397 298.938 400.245 298.179 400.397 298.108C400.55 298.038 400.971 298.716 401.322 299.615C401.673 300.515 401.848 301.344 401.696 301.344Z" fill="#FAFAFA"/>
<path d="M424.347 304.591C424.172 304.591 424.043 304.019 424.043 303.306C424.043 302.594 424.172 302.01 424.347 302.01C424.523 302.01 424.651 302.594 424.651 303.306C424.651 304.019 424.511 304.591 424.347 304.591Z" fill="#FAFAFA"/>
<path d="M415.034 316.878C414.87 316.878 414.683 316.177 414.625 315.278C414.566 314.379 414.625 313.654 414.812 313.643C414.999 313.631 415.175 314.344 415.233 315.243C415.292 316.142 415.198 316.866 415.034 316.878Z" fill="#FAFAFA"/>
<path d="M398.022 325.872C397.882 325.977 397.402 325.545 396.771 325.101C396.139 324.657 395.601 324.319 395.601 324.155C395.601 323.991 396.373 324.085 397.087 324.599C397.8 325.113 398.163 325.872 398.022 325.872Z" fill="#FAFAFA"/>
<path d="M428.01 337.33C427.869 337.237 428.01 336.734 428.407 336.162C428.805 335.59 429.168 335.263 429.308 335.356C429.449 335.45 429.308 335.964 428.91 336.524C428.513 337.085 428.15 337.424 428.01 337.33Z" fill="#FAFAFA"/>
<path d="M409.5 340.565C409.336 340.565 409.196 339.596 409.196 338.416C409.196 337.236 409.336 336.255 409.5 336.255C409.664 336.255 409.804 337.225 409.804 338.416C409.804 339.608 409.629 340.565 409.5 340.565Z" fill="#FAFAFA"/>
<path d="M403.44 353.671C403.346 353.799 402.738 353.53 402.082 353.051C401.427 352.573 400.912 352.082 401.064 351.942C401.217 351.802 401.778 352.082 402.433 352.561C403.089 353.04 403.545 353.53 403.44 353.671Z" fill="#FAFAFA"/>
<path d="M422.183 358.225C422.253 358.377 421.879 358.693 421.34 358.938C420.802 359.183 420.311 359.242 420.241 359.09C420.17 358.938 420.557 358.623 421.095 358.377C421.633 358.132 422.124 358.074 422.183 358.225Z" fill="#FAFAFA"/>
<path d="M409.5 379.6C409.36 379.67 408.751 378.771 408.154 377.579C407.558 376.388 407.195 375.36 407.347 375.243C407.499 375.126 408.108 376.072 408.693 377.264C409.278 378.455 409.605 379.471 409.5 379.6Z" fill="#FAFAFA"/>
<path d="M430.174 377.614C430.022 377.533 430.291 376.75 430.759 375.851C431.227 374.951 431.753 374.297 431.929 374.379C432.104 374.461 431.812 375.243 431.332 376.143C430.853 377.042 430.314 377.696 430.174 377.614Z" fill="#FAFAFA"/>
<path d="M421.106 395.707C420.931 395.707 420.954 394.761 420.767 393.663C420.58 392.565 420.299 391.689 420.463 391.607C420.627 391.525 421.188 392.355 421.376 393.569C421.563 394.784 421.27 395.742 421.106 395.707Z" fill="#FAFAFA"/>
<path d="M411.395 406.044C411.278 406.16 410.693 405.716 410.097 405.062C409.5 404.408 409.114 403.789 409.243 403.672C409.371 403.556 409.945 404 410.541 404.654C411.138 405.308 411.524 405.927 411.395 406.044Z" fill="#FAFAFA"/>
<path d="M434.959 409.968C434.842 409.851 435.275 409.221 435.93 408.555C436.585 407.889 437.194 407.457 437.322 407.574C437.451 407.691 437.007 408.333 436.363 408.987C435.72 409.641 435.088 410.085 434.959 409.968Z" fill="#FAFAFA"/>
<path d="M421.41 425.444C421.247 425.444 421.247 424.521 421.41 423.447C421.574 422.372 421.832 421.531 422.007 421.555C422.183 421.578 422.171 422.466 422.007 423.54C421.843 424.615 421.574 425.467 421.41 425.444Z" fill="#FAFAFA"/>
<path d="M412.296 432.954C412.144 433.036 411.63 432.428 411.126 431.599C410.623 430.77 410.366 430.034 410.506 429.952C410.647 429.871 411.162 430.466 411.676 431.296C412.191 432.125 412.437 432.861 412.296 432.954Z" fill="#FAFAFA"/>
<path d="M434.257 442.427C434.362 442.567 433.766 443.163 432.923 443.758C432.081 444.354 431.344 444.728 431.238 444.588C431.133 444.447 431.742 443.852 432.572 443.256C433.403 442.66 434.163 442.298 434.257 442.427Z" fill="#FAFAFA"/>
<path d="M415.958 454.726C415.794 454.667 415.958 453.733 416.11 452.565C416.262 451.397 416.169 450.439 416.344 450.416C416.52 450.393 416.824 451.374 416.707 452.623C416.59 453.873 416.11 454.796 415.958 454.726Z" fill="#FAFAFA"/>
<path d="M423.271 472.386C423.131 472.491 422.639 472.094 422.159 471.498C421.68 470.902 421.411 470.33 421.539 470.225C421.668 470.12 422.159 470.517 422.639 471.113C423.119 471.708 423.4 472.281 423.271 472.386Z" fill="#FAFAFA"/>
<path d="M415.28 484.229C415.139 484.323 414.496 483.634 413.84 482.676C413.185 481.718 412.776 480.877 412.904 480.784C413.033 480.69 413.688 481.38 414.344 482.337C414.999 483.295 415.42 484.136 415.28 484.229Z" fill="#FAFAFA"/>
<path d="M437.287 469.361C437.135 469.302 437.147 468.87 437.287 468.403C437.428 467.936 437.744 467.585 437.908 467.644C438.071 467.702 438.048 468.134 437.908 468.613C437.767 469.092 437.451 469.431 437.287 469.361Z" fill="#FAFAFA"/>
<path d="M427.577 497.568C427.425 497.486 427.717 496.657 427.951 495.617C428.185 494.578 428.267 493.702 428.442 493.69C428.618 493.678 428.793 494.624 428.548 495.746C428.302 496.867 427.717 497.661 427.577 497.568Z" fill="#FAFAFA"/>
<path d="M433.894 317.065C433.742 317.135 433.368 316.668 433.064 316.014C432.759 315.36 432.631 314.776 432.783 314.706C432.935 314.636 433.309 315.103 433.613 315.757C433.918 316.411 434.07 316.995 433.894 317.065Z" fill="#FAFAFA"/>
<path d="M417.69 280.694C417.784 280.834 416.965 281.488 416.087 282.422C415.21 283.357 414.613 284.221 414.461 284.139C414.309 284.058 414.707 282.971 415.631 282.014C416.555 281.056 417.573 280.542 417.69 280.694Z" fill="#FAFAFA"/>
<path d="M432.116 280.32C431.941 280.32 431.672 279.654 431.262 278.86C430.853 278.066 430.478 277.412 430.607 277.295C430.736 277.178 431.367 277.692 431.777 278.58C432.186 279.467 432.268 280.226 432.116 280.32Z" fill="#FAFAFA"/>
<path d="M387.071 292.128C386.919 292.058 387.071 291.288 387.434 290.4C387.797 289.512 388.194 288.823 388.358 288.893C388.522 288.963 388.358 289.722 387.996 290.622C387.633 291.521 387.27 292.187 387.071 292.128Z" fill="#FAFAFA"/>
<path d="M388.534 309.765C388.417 309.894 387.75 309.52 387.036 308.924C386.322 308.329 385.866 307.756 385.936 307.616C386.007 307.476 386.72 307.862 387.434 308.457C388.148 309.053 388.639 309.637 388.534 309.765Z" fill="#FAFAFA"/>
<path d="M418.088 266.689C417.936 266.689 417.608 266.315 417.374 265.72C417.14 265.124 417.07 264.552 417.222 264.552C417.374 264.552 417.702 264.926 417.936 265.521C418.17 266.117 418.24 266.631 418.088 266.689Z" fill="#FAFAFA"/>
<path d="M446.39 275.309C446.226 275.309 446.238 274.573 446.39 273.744C446.542 272.915 446.846 272.261 447.01 272.296C447.174 272.331 447.162 273.043 447.01 273.873C446.858 274.702 446.554 275.344 446.39 275.309Z" fill="#FAFAFA"/>
<path d="M453.036 288.659C452.884 288.589 453.094 287.725 453.515 286.709C453.937 285.693 454.393 284.934 454.545 284.992C454.697 285.05 454.545 285.926 454.077 286.942C453.609 287.959 453.199 288.718 453.036 288.659Z" fill="#FAFAFA"/>
<path d="M448.297 299.428C448.145 299.498 447.584 298.693 447.045 297.63C446.507 296.567 446.203 295.621 446.355 295.551C446.507 295.481 447.057 296.286 447.595 297.349C448.133 298.412 448.449 299.347 448.297 299.428Z" fill="#FAFAFA"/>
<path d="M458.429 310.197C458.277 310.139 458.429 309.462 458.687 308.691C458.944 307.92 459.354 307.336 459.517 307.394C459.681 307.453 459.517 308.13 459.26 308.901C459.003 309.672 458.64 310.256 458.429 310.197Z" fill="#FAFAFA"/>
<path d="M449.374 320.745C449.233 320.838 448.871 320.523 448.578 320.055C448.286 319.588 448.145 319.121 448.297 319.028C448.45 318.934 448.789 319.25 449.093 319.728C449.397 320.207 449.514 320.663 449.374 320.745Z" fill="#FAFAFA"/>
<path d="M451.304 342.516C451.187 342.621 450.45 342.049 449.678 341.208C448.905 340.367 448.379 339.608 448.508 339.491C448.636 339.374 449.362 339.958 450.134 340.799C450.906 341.64 451.433 342.399 451.304 342.516Z" fill="#FAFAFA"/>
<path d="M463.179 330.006C463.051 330.112 462.407 329.528 461.752 328.687C461.097 327.846 460.676 327.098 460.804 326.993C460.933 326.888 461.577 327.484 462.232 328.313C462.887 329.142 463.32 329.913 463.179 330.006Z" fill="#FAFAFA"/>
<path d="M469.696 347.258C469.544 347.188 469.813 346.312 470.293 345.307C470.773 344.303 471.276 343.532 471.463 343.602C471.65 343.672 471.358 344.56 470.878 345.564C470.398 346.569 469.848 347.34 469.696 347.258Z" fill="#FAFAFA"/>
<path d="M455.844 361.461C455.692 361.543 455.153 360.9 454.405 360.211C453.656 359.522 452.965 359.043 453.036 358.868C453.106 358.693 453.995 359.008 454.814 359.767C455.633 360.527 455.984 361.379 455.844 361.461Z" fill="#FAFAFA"/>
<path d="M456.71 376.096C456.71 376.259 456.125 376.399 455.411 376.399C454.697 376.399 454.124 376.259 454.124 376.096C454.124 375.932 454.697 375.792 455.411 375.792C456.125 375.792 456.71 375.932 456.71 376.096Z" fill="#FAFAFA"/>
<path d="M470.948 372.008C470.796 371.926 471.1 371.19 471.323 370.279C471.545 369.368 471.639 368.574 471.814 368.562C471.99 368.55 472.177 369.403 471.919 370.419C471.662 371.435 471.077 372.101 470.948 372.008Z" fill="#FAFAFA"/>
<path d="M485.094 376.925C484.941 376.984 484.509 376.154 484.134 375.091C483.76 374.029 483.584 373.118 483.736 373.071C483.888 373.024 484.333 373.83 484.707 374.893C485.082 375.956 485.257 376.867 485.094 376.925Z" fill="#FAFAFA"/>
<path d="M482.835 397.015C482.695 396.933 483.058 395.952 483.643 394.819C484.228 393.686 484.813 392.833 484.988 392.915C485.164 392.997 484.778 393.978 484.181 395.099C483.584 396.221 482.987 397.12 482.835 397.015Z" fill="#FAFAFA"/>
<path d="M469.931 408.8C469.779 408.858 469.299 408.052 468.854 406.99C468.41 405.927 468.187 405.016 468.351 404.946C468.515 404.876 468.983 405.693 469.416 406.756C469.849 407.819 470.083 408.8 469.931 408.8Z" fill="#FAFAFA"/>
<path d="M455.633 413.367C455.633 413.53 455.142 413.67 454.545 413.67C453.948 413.67 453.469 413.53 453.469 413.367C453.469 413.203 453.96 413.063 454.545 413.063C455.13 413.063 455.633 413.203 455.633 413.367Z" fill="#FAFAFA"/>
<path d="M463.823 432.16C463.671 432.16 463.343 431.518 463.097 430.63C462.852 429.742 462.805 428.971 462.969 428.936C463.133 428.901 463.449 429.579 463.694 430.466C463.94 431.354 463.987 432.067 463.823 432.16Z" fill="#FAFAFA"/>
<path d="M453.469 425.853C453.328 425.771 453.469 425.222 453.855 424.626C454.241 424.031 454.627 423.622 454.767 423.704C454.908 423.786 454.767 424.346 454.381 424.942C453.995 425.538 453.621 425.946 453.469 425.853Z" fill="#FAFAFA"/>
<path d="M453.258 446.538C453.094 446.538 452.86 445.756 452.743 444.739C452.626 443.723 452.661 442.894 452.825 442.871C452.989 442.847 453.223 443.653 453.34 444.669C453.457 445.685 453.422 446.515 453.258 446.538Z" fill="#FAFAFA"/>
</svg>
