<svg width="57" height="55" viewBox="0 0 57 55" fill="none" xmlns="http://www.w3.org/2000/svg">
<path d="M14.125 50H24.125C24.125 52.75 21.875 55 19.125 55C16.375 55 14.125 52.75 14.125 50ZM9.125 47.5H29.125V42.5H9.125V47.5ZM37.875 23.75C37.875 33.3 31.225 38.4 28.45 40H9.8C7.025 38.4 0.375 33.3 0.375 23.75C0.375 13.4 8.775 5 19.125 5C29.475 5 37.875 13.4 37.875 23.75ZM32.875 23.75C32.875 16.175 26.7 10 19.125 10C11.55 10 5.375 16.175 5.375 23.75C5.375 29.925 9.1 33.475 11.25 35H27C29.15 33.475 32.875 29.925 32.875 23.75ZM50.05 18.425L46.625 20L50.05 21.575L51.625 25L53.2 21.575L56.625 20L53.2 18.425L51.625 15L50.05 18.425ZM44.125 15L46.475 9.85L51.625 7.5L46.475 5.15L44.125 0L41.775 5.15L36.625 7.5L41.775 9.85L44.125 15Z" fill="#036E67"/>
</svg>
