<svg xmlns="http://www.w3.org/2000/svg" xmlns:xlink="http://www.w3.org/1999/xlink" width="500" zoomAndPan="magnify" viewBox="0 0 375 374.999991" height="500" preserveAspectRatio="xMidYMid meet" version="1.0"><defs><g/><clipPath id="id1"><path d="M 56 16 L 319 16 L 319 240 L 56 240 Z M 56 16 " clip-rule="nonzero"/></clipPath><clipPath id="id2"><path d="M 187.496094 -38.078125 L 372.582031 147.007812 L 187.496094 332.09375 L 2.410156 147.007812 Z M 187.496094 -38.078125 " clip-rule="nonzero"/></clipPath><clipPath id="id3"><path d="M 187.496094 -38.078125 L 372.582031 147.007812 L 187.496094 332.09375 L 2.410156 147.007812 Z M 187.496094 -38.078125 " clip-rule="nonzero"/></clipPath></defs><g clip-path="url(#id1)"><g clip-path="url(#id2)"><g clip-path="url(#id3)"><path fill="#000000" d="M 155.882812 178.621094 C 138.449219 161.183594 138.449219 132.828125 155.882812 115.394531 C 173.320312 97.960938 201.675781 97.960938 219.109375 115.394531 C 236.542969 132.828125 236.542969 161.183594 219.109375 178.621094 L 209.410156 168.921875 C 221.480469 156.855469 221.515625 137.199219 209.410156 125.09375 C 197.34375 113.027344 177.6875 112.988281 165.582031 125.09375 C 153.476562 137.199219 153.476562 156.816406 165.582031 168.921875 Z M 145.296875 189.207031 C 122.015625 165.921875 122.050781 128.054688 145.296875 104.808594 C 168.542969 81.5625 206.449219 81.5625 229.695312 104.808594 C 252.941406 128.054688 252.941406 165.960938 229.695312 189.207031 L 239.394531 198.90625 C 268.007812 170.292969 268.046875 123.6875 239.394531 95.035156 C 210.78125 66.421875 164.175781 66.382812 135.523438 95.035156 C 106.910156 123.648438 106.875 170.253906 135.523438 198.90625 L 145.261719 189.167969 Z M 124.976562 209.527344 C 90.511719 175.066406 90.511719 118.949219 124.976562 84.484375 C 159.4375 50.023438 215.554688 50.023438 250.019531 84.484375 C 284.480469 118.949219 284.480469 175.066406 250.019531 209.527344 L 259.71875 219.226562 C 299.546875 179.398438 299.546875 114.617188 259.71875 74.785156 C 219.886719 34.957031 155.105469 34.957031 115.277344 74.785156 C 75.445312 114.617188 75.445312 179.398438 115.277344 219.226562 Z M 104.652344 229.851562 C 82.515625 207.714844 70.339844 178.285156 70.339844 147.042969 C 70.339844 115.800781 82.515625 86.300781 104.652344 64.164062 C 126.789062 42.027344 156.21875 29.847656 187.496094 29.886719 C 218.777344 29.921875 248.203125 42.027344 270.339844 64.164062 C 292.476562 86.300781 304.65625 115.726562 304.65625 146.96875 C 304.65625 178.210938 292.441406 207.679688 270.339844 229.777344 L 280.078125 239.511719 C 304.804688 214.785156 318.425781 181.914062 318.425781 146.96875 C 318.425781 112.027344 304.765625 79.191406 280.039062 54.464844 C 255.3125 29.738281 222.441406 16.113281 187.496094 16.113281 C 152.554688 16.113281 119.683594 29.738281 94.953125 54.464844 C 70.226562 79.191406 56.605469 112.0625 56.605469 147.007812 C 56.605469 181.953125 70.226562 214.824219 94.953125 239.550781 Z M 104.652344 229.851562 " fill-opacity="1" fill-rule="nonzero"/></g></g></g><g fill="#000000" fill-opacity="1"><g transform="translate(40.779483, 300.544946)"><g><path d="M 26.28125 1.046875 C 37.621094 1.046875 46.535156 -6.554688 48.632812 -17.894531 L 38.605469 -17.894531 C 36.964844 -12.125 32.3125 -8.453125 26.28125 -8.453125 C 18.484375 -8.453125 12.648438 -14.617188 12.648438 -22.875 C 12.648438 -31.132812 18.484375 -37.359375 26.28125 -37.359375 C 32.050781 -37.359375 36.636719 -33.949219 38.539062 -28.578125 L 48.4375 -28.578125 C 46.339844 -39.457031 37.425781 -46.863281 26.28125 -46.863281 C 12.78125 -46.863281 2.554688 -36.507812 2.554688 -22.875 C 2.554688 -9.308594 12.78125 1.046875 26.28125 1.046875 Z M 26.28125 1.046875 "/></g></g></g><g fill="#000000" fill-opacity="1"><g transform="translate(91.959512, 300.544946)"><g><path d="M 35.65625 0 L 46.46875 0 L 27.921875 -45.878906 L 18.546875 -45.878906 L 0.523438 0 L 11.078125 0 L 14.222656 -8.652344 L 32.445312 -8.652344 Z M 23.332031 -33.753906 L 29.363281 -17.304688 L 17.304688 -17.304688 Z M 23.332031 -33.753906 "/></g></g></g><g fill="#000000" fill-opacity="1"><g transform="translate(139.666386, 300.544946)"><g><path d="M 61.414062 0 L 54.335938 -45.878906 L 44.371094 -45.878906 L 31.917969 -17.695312 L 19.464844 -45.878906 L 9.570312 -45.878906 L 2.359375 0 L 12.453125 0 L 16.976562 -29.886719 L 30.675781 -0.0664062 L 33.097656 -0.0664062 L 46.796875 -29.886719 L 51.320312 0 Z M 61.414062 0 "/></g></g></g><g fill="#000000" fill-opacity="1"><g transform="translate(204.214767, 300.544946)"><g><path d="M 20.449219 0.917969 C 29.953125 0.917969 37.816406 -3.867188 37.816406 -13.765625 C 37.816406 -24.054688 29.035156 -26.21875 22.085938 -27.988281 C 17.171875 -29.167969 13.238281 -30.148438 13.238281 -33.359375 C 13.238281 -36.375 16.449219 -37.753906 19.664062 -37.753906 C 23.398438 -37.753906 26.675781 -35.917969 26.675781 -31.917969 L 36.441406 -31.917969 C 36.441406 -41.09375 30.476562 -46.730469 19.925781 -46.730469 C 9.765625 -46.730469 3.277344 -41.75 3.277344 -32.96875 C 3.277344 -23.070312 11.667969 -21.039062 18.613281 -19.335938 C 23.59375 -18.222656 27.789062 -17.238281 27.789062 -13.632812 C 27.789062 -10.226562 24.121094 -8.257812 20.382812 -8.257812 C 16.320312 -8.257812 12.648438 -10.421875 12.648438 -14.8125 L 2.621094 -14.8125 C 2.621094 -4.980469 9.898438 0.917969 20.449219 0.917969 Z M 20.449219 0.917969 "/></g></g></g><g fill="#000000" fill-opacity="1"><g transform="translate(245.434048, 300.544946)"><g><path d="M 27.003906 1.046875 C 40.964844 1.046875 51.386719 -9.242188 51.386719 -22.941406 C 51.386719 -36.574219 40.964844 -46.863281 27.003906 -46.863281 C 12.976562 -46.863281 2.492188 -36.507812 2.492188 -22.941406 C 2.492188 -9.308594 12.976562 1.046875 27.003906 1.046875 Z M 27.003906 -8.324219 C 18.8125 -8.324219 12.585938 -14.679688 12.585938 -22.941406 C 12.585938 -31.199219 18.8125 -37.492188 27.003906 -37.492188 C 35.195312 -37.492188 41.292969 -31.265625 41.292969 -22.941406 C 41.292969 -14.617188 35.195312 -8.324219 27.003906 -8.324219 Z M 27.003906 -8.324219 "/></g></g></g><g fill="#000000" fill-opacity="1"><g transform="translate(300.021699, 300.544946)"><g><path d="M 15.140625 -9.175781 L 15.140625 -45.878906 L 5.242188 -45.878906 L 5.242188 0 L 32.769531 0 L 32.769531 -9.175781 Z M 15.140625 -9.175781 "/></g></g></g><g fill="#000000" fill-opacity="1"><g transform="translate(73.732994, 341.524137)"><g><path d="M 17.289062 -23.964844 L 0.71875 -23.964844 L 0.71875 -23.28125 L 8.660156 -23.28125 L 8.660156 0 L 9.347656 0 L 9.347656 -23.28125 L 17.289062 -23.28125 Z M 17.289062 -23.964844 "/></g></g></g><g fill="#000000" fill-opacity="1"><g transform="translate(91.806715, 341.524137)"><g><path d="M 20.0625 -9.414062 C 20.0625 -14.722656 16.261719 -18.832031 11.023438 -18.832031 C 5.785156 -18.832031 1.78125 -14.6875 1.78125 -9.242188 C 1.78125 -3.765625 5.785156 0.375 11.023438 0.375 C 14.757812 0.375 17.667969 -1.539062 19.445312 -5.167969 L 18.726562 -5.167969 C 17.1875 -2.121094 14.449219 -0.308594 11.023438 -0.308594 C 6.195312 -0.308594 2.566406 -4.074219 2.464844 -9.074219 L 20.0625 -9.074219 C 20.0625 -9.175781 20.0625 -9.3125 20.0625 -9.414062 Z M 11.023438 -18.144531 C 15.613281 -18.144531 19.207031 -14.722656 19.378906 -9.722656 L 2.464844 -9.722656 C 2.703125 -14.585938 6.300781 -18.144531 11.023438 -18.144531 Z M 11.023438 -18.144531 "/></g></g></g><g fill="#000000" fill-opacity="1"><g transform="translate(113.543095, 341.524137)"><g><path d="M 11.230469 0.375 C 15.167969 0.375 18.386719 -1.816406 19.824219 -5.308594 L 19.105469 -5.308594 C 17.667969 -2.15625 14.722656 -0.308594 11.230469 -0.308594 C 6.230469 -0.308594 2.464844 -4.175781 2.464844 -9.242188 C 2.464844 -14.3125 6.195312 -18.144531 11.230469 -18.144531 C 14.757812 -18.144531 17.699219 -16.296875 19.035156 -13.179688 L 19.753906 -13.179688 C 18.386719 -16.570312 15.234375 -18.832031 11.230469 -18.832031 C 5.855469 -18.832031 1.746094 -14.757812 1.746094 -9.242188 C 1.746094 -3.765625 5.890625 0.375 11.230469 0.375 Z M 11.230469 0.375 "/></g></g></g><g fill="#000000" fill-opacity="1"><g transform="translate(134.697566, 341.524137)"><g><path d="M 11.539062 -18.832031 C 8.25 -18.832031 5.308594 -16.707031 4.144531 -13.796875 L 4.144531 -24.992188 L 3.457031 -24.992188 L 3.457031 0 L 4.144531 0 L 4.144531 -10.921875 C 4.144531 -14.789062 7.53125 -18.179688 11.433594 -18.179688 C 15.578125 -18.179688 18.113281 -15.371094 18.113281 -10.820312 L 18.113281 0 L 18.796875 0 L 18.796875 -10.886719 C 18.796875 -15.75 16.023438 -18.832031 11.539062 -18.832031 Z M 11.539062 -18.832031 "/></g></g></g><g fill="#000000" fill-opacity="1"><g transform="translate(156.605104, 341.524137)"><g><path d="M 11.539062 -18.832031 C 8.25 -18.832031 5.308594 -16.707031 4.109375 -13.761719 L 4.039062 -18.488281 L 3.457031 -18.488281 L 3.457031 0 L 4.144531 0 L 4.144531 -10.921875 C 4.144531 -14.789062 7.53125 -18.179688 11.433594 -18.179688 C 15.578125 -18.179688 18.113281 -15.371094 18.113281 -10.820312 L 18.113281 0 L 18.796875 0 L 18.796875 -10.886719 C 18.796875 -15.714844 16.023438 -18.832031 11.539062 -18.832031 Z M 11.539062 -18.832031 "/></g></g></g><g fill="#000000" fill-opacity="1"><g transform="translate(178.512641, 341.524137)"><g><path d="M 11.332031 0.375 C 16.84375 0.375 20.917969 -3.730469 20.917969 -9.242188 C 20.917969 -14.722656 16.84375 -18.832031 11.332031 -18.832031 C 5.890625 -18.832031 1.746094 -14.757812 1.746094 -9.242188 C 1.746094 -3.730469 5.890625 0.375 11.332031 0.375 Z M 11.332031 -0.308594 C 6.265625 -0.308594 2.464844 -4.144531 2.464844 -9.242188 C 2.464844 -14.34375 6.230469 -18.144531 11.332031 -18.144531 C 16.433594 -18.144531 20.234375 -14.3125 20.234375 -9.242188 C 20.234375 -4.144531 16.433594 -0.308594 11.332031 -0.308594 Z M 11.332031 -0.308594 "/></g></g></g><g fill="#000000" fill-opacity="1"><g transform="translate(201.207487, 341.524137)"><g><path d="M 3.457031 0 L 4.144531 0 L 4.144531 -24.992188 L 3.457031 -24.992188 Z M 3.457031 0 "/></g></g></g><g fill="#000000" fill-opacity="1"><g transform="translate(208.806661, 341.524137)"><g><path d="M 11.332031 0.375 C 16.84375 0.375 20.917969 -3.730469 20.917969 -9.242188 C 20.917969 -14.722656 16.84375 -18.832031 11.332031 -18.832031 C 5.890625 -18.832031 1.746094 -14.757812 1.746094 -9.242188 C 1.746094 -3.730469 5.890625 0.375 11.332031 0.375 Z M 11.332031 -0.308594 C 6.265625 -0.308594 2.464844 -4.144531 2.464844 -9.242188 C 2.464844 -14.34375 6.230469 -18.144531 11.332031 -18.144531 C 16.433594 -18.144531 20.234375 -14.3125 20.234375 -9.242188 C 20.234375 -4.144531 16.433594 -0.308594 11.332031 -0.308594 Z M 11.332031 -0.308594 "/></g></g></g><g fill="#000000" fill-opacity="1"><g transform="translate(231.501506, 341.524137)"><g><path d="M 19.105469 -18.488281 L 19.035156 -13.179688 C 17.769531 -16.535156 14.621094 -18.832031 10.785156 -18.832031 C 5.71875 -18.832031 1.78125 -14.894531 1.78125 -9.722656 C 1.78125 -4.554688 5.683594 -0.652344 10.785156 -0.652344 C 14.621094 -0.652344 17.734375 -2.839844 19 -6.195312 L 19 -2.703125 C 19 2.910156 15.988281 6.230469 11.023438 6.230469 C 7.464844 6.230469 4.792969 4.484375 3.628906 1.371094 L 2.945312 1.371094 C 4.144531 4.863281 6.984375 6.882812 11.023438 6.882812 C 16.433594 6.882812 19.6875 3.253906 19.6875 -2.738281 L 19.6875 -18.488281 Z M 10.820312 -1.335938 C 6.058594 -1.335938 2.5 -4.964844 2.5 -9.722656 C 2.5 -14.484375 6.058594 -18.144531 10.820312 -18.144531 C 15.507812 -18.144531 19 -14.550781 19 -9.722656 C 19 -4.894531 15.542969 -1.335938 10.820312 -1.335938 Z M 10.820312 -1.335938 "/></g></g></g><g fill="#000000" fill-opacity="1"><g transform="translate(254.675573, 341.524137)"><g><path d="M 3.148438 -22.800781 L 4.417969 -22.800781 L 4.417969 -24.378906 L 3.148438 -24.378906 Z M 3.457031 0 L 4.144531 0 L 4.144531 -18.488281 L 3.457031 -18.488281 Z M 3.457031 0 "/></g></g></g><g fill="#000000" fill-opacity="1"><g transform="translate(262.274747, 341.524137)"><g><path d="M 20.0625 -9.414062 C 20.0625 -14.722656 16.261719 -18.832031 11.023438 -18.832031 C 5.785156 -18.832031 1.78125 -14.6875 1.78125 -9.242188 C 1.78125 -3.765625 5.785156 0.375 11.023438 0.375 C 14.757812 0.375 17.667969 -1.539062 19.445312 -5.167969 L 18.726562 -5.167969 C 17.1875 -2.121094 14.449219 -0.308594 11.023438 -0.308594 C 6.195312 -0.308594 2.566406 -4.074219 2.464844 -9.074219 L 20.0625 -9.074219 C 20.0625 -9.175781 20.0625 -9.3125 20.0625 -9.414062 Z M 11.023438 -18.144531 C 15.613281 -18.144531 19.207031 -14.722656 19.378906 -9.722656 L 2.464844 -9.722656 C 2.703125 -14.585938 6.300781 -18.144531 11.023438 -18.144531 Z M 11.023438 -18.144531 "/></g></g></g><g fill="#000000" fill-opacity="1"><g transform="translate(284.011116, 341.524137)"><g><path d="M 8.628906 0.375 C 12.769531 0.375 15.542969 -1.710938 15.542969 -4.828125 C 15.542969 -8.832031 11.878906 -9.519531 8.628906 -10.066406 C 5.511719 -10.578125 2.703125 -11.058594 2.703125 -14.003906 C 2.703125 -16.503906 5.03125 -18.179688 8.492188 -18.179688 C 12.015625 -18.179688 14.175781 -16.535156 14.34375 -13.761719 L 15.03125 -13.761719 C 14.824219 -16.914062 12.359375 -18.832031 8.492188 -18.832031 C 4.65625 -18.832031 2.019531 -16.878906 2.019531 -14.003906 C 2.019531 -10.476562 5.273438 -9.929688 8.492188 -9.382812 C 11.675781 -8.867188 14.859375 -8.25 14.859375 -4.828125 C 14.859375 -2.089844 12.394531 -0.308594 8.628906 -0.308594 C 4.929688 -0.308594 2.671875 -1.984375 2.328125 -4.863281 L 1.675781 -4.863281 C 1.984375 -1.609375 4.519531 0.375 8.628906 0.375 Z M 8.628906 0.375 "/></g></g></g></svg>